<svg width="436" height="227" viewBox="0 0 436 227" fill="none" xmlns="http://www.w3.org/2000/svg">
<g opacity="0.3">
<rect width="436" height="227" rx="12" fill="#E9EDF5"/>
<rect x="8" y="8" width="420" height="211" rx="12" fill="white"/>
<path d="M70.8047 104H69.4854V99.3994H64.4678V104H63.1553V94.0469H64.4678V98.3262H69.4854V94.0469H70.8047V104ZM77.5039 104C77.431 103.854 77.3717 103.594 77.3262 103.221C76.7383 103.831 76.0365 104.137 75.2207 104.137C74.4915 104.137 73.8923 103.932 73.4229 103.521C72.958 103.107 72.7256 102.583 72.7256 101.949C72.7256 101.179 73.0173 100.582 73.6006 100.158C74.1885 99.7298 75.0133 99.5156 76.0752 99.5156H77.3057V98.9346C77.3057 98.4925 77.1735 98.1416 76.9092 97.8818C76.6449 97.6175 76.2552 97.4854 75.7402 97.4854C75.2891 97.4854 74.9108 97.5993 74.6055 97.8271C74.3001 98.055 74.1475 98.3307 74.1475 98.6543H72.876C72.876 98.2852 73.0059 97.9297 73.2656 97.5879C73.5299 97.2415 73.8854 96.9681 74.332 96.7676C74.7832 96.5671 75.2777 96.4668 75.8154 96.4668C76.6676 96.4668 77.3353 96.681 77.8184 97.1094C78.3014 97.5332 78.5521 98.1188 78.5703 98.8662V102.271C78.5703 102.95 78.6569 103.49 78.8301 103.891V104H77.5039ZM75.4053 103.036C75.8018 103.036 76.1777 102.934 76.5332 102.729C76.8887 102.523 77.1462 102.257 77.3057 101.929V100.411H76.3145C74.765 100.411 73.9902 100.865 73.9902 101.771C73.9902 102.168 74.1224 102.478 74.3867 102.701C74.651 102.924 74.9906 103.036 75.4053 103.036ZM82.8838 102.284L84.7158 96.6035H86.0078L83.3555 104H82.3916L79.7119 96.6035H81.0039L82.8838 102.284ZM88.5986 104H87.334V96.6035H88.5986V104ZM87.2314 94.6416C87.2314 94.4365 87.293 94.2633 87.416 94.1221C87.5436 93.9808 87.7305 93.9102 87.9766 93.9102C88.2227 93.9102 88.4095 93.9808 88.5371 94.1221C88.6647 94.2633 88.7285 94.4365 88.7285 94.6416C88.7285 94.8467 88.6647 95.0176 88.5371 95.1543C88.4095 95.291 88.2227 95.3594 87.9766 95.3594C87.7305 95.3594 87.5436 95.291 87.416 95.1543C87.293 95.0176 87.2314 94.8467 87.2314 94.6416ZM91.8252 96.6035L91.8662 97.5332C92.4313 96.8223 93.1696 96.4668 94.0811 96.4668C95.6442 96.4668 96.4326 97.3486 96.4463 99.1123V104H95.1816V99.1055C95.1771 98.5723 95.054 98.1781 94.8125 97.9229C94.5755 97.6676 94.2041 97.54 93.6982 97.54C93.2881 97.54 92.9281 97.6494 92.6182 97.8682C92.3083 98.0869 92.0667 98.374 91.8936 98.7295V104H90.6289V96.6035H91.8252ZM98.0527 100.24C98.0527 99.0872 98.3193 98.1712 98.8525 97.4922C99.3857 96.8086 100.092 96.4668 100.972 96.4668C101.874 96.4668 102.578 96.7858 103.084 97.4238L103.146 96.6035H104.301V103.822C104.301 104.779 104.016 105.534 103.446 106.085C102.881 106.636 102.12 106.912 101.163 106.912C100.63 106.912 100.108 106.798 99.5977 106.57C99.0872 106.342 98.6976 106.03 98.4287 105.634L99.085 104.875C99.6273 105.545 100.29 105.88 101.074 105.88C101.689 105.88 102.168 105.707 102.51 105.36C102.856 105.014 103.029 104.526 103.029 103.897V103.262C102.523 103.845 101.833 104.137 100.958 104.137C100.092 104.137 99.3903 103.788 98.8525 103.091C98.3193 102.394 98.0527 101.443 98.0527 100.24ZM99.3242 100.384C99.3242 101.218 99.4951 101.874 99.8369 102.353C100.179 102.826 100.657 103.063 101.272 103.063C102.07 103.063 102.656 102.701 103.029 101.977V98.5996C102.642 97.8932 102.061 97.54 101.286 97.54C100.671 97.54 100.19 97.7793 99.8438 98.2578C99.4974 98.7363 99.3242 99.445 99.3242 100.384ZM114.254 104C114.181 103.854 114.122 103.594 114.076 103.221C113.488 103.831 112.786 104.137 111.971 104.137C111.242 104.137 110.642 103.932 110.173 103.521C109.708 103.107 109.476 102.583 109.476 101.949C109.476 101.179 109.767 100.582 110.351 100.158C110.938 99.7298 111.763 99.5156 112.825 99.5156H114.056V98.9346C114.056 98.4925 113.924 98.1416 113.659 97.8818C113.395 97.6175 113.005 97.4854 112.49 97.4854C112.039 97.4854 111.661 97.5993 111.355 97.8271C111.05 98.055 110.897 98.3307 110.897 98.6543H109.626C109.626 98.2852 109.756 97.9297 110.016 97.5879C110.28 97.2415 110.635 96.9681 111.082 96.7676C111.533 96.5671 112.028 96.4668 112.565 96.4668C113.418 96.4668 114.085 96.681 114.568 97.1094C115.051 97.5332 115.302 98.1188 115.32 98.8662V102.271C115.32 102.95 115.407 103.49 115.58 103.891V104H114.254ZM112.155 103.036C112.552 103.036 112.928 102.934 113.283 102.729C113.639 102.523 113.896 102.257 114.056 101.929V100.411H113.064C111.515 100.411 110.74 100.865 110.74 101.771C110.74 102.168 110.872 102.478 111.137 102.701C111.401 102.924 111.741 103.036 112.155 103.036ZM120.475 100.24C120.475 99.0872 120.741 98.1712 121.274 97.4922C121.808 96.8086 122.514 96.4668 123.394 96.4668C124.296 96.4668 125 96.7858 125.506 97.4238L125.567 96.6035H126.723V103.822C126.723 104.779 126.438 105.534 125.868 106.085C125.303 106.636 124.542 106.912 123.585 106.912C123.052 106.912 122.53 106.798 122.02 106.57C121.509 106.342 121.119 106.03 120.851 105.634L121.507 104.875C122.049 105.545 122.712 105.88 123.496 105.88C124.111 105.88 124.59 105.707 124.932 105.36C125.278 105.014 125.451 104.526 125.451 103.897V103.262C124.945 103.845 124.255 104.137 123.38 104.137C122.514 104.137 121.812 103.788 121.274 103.091C120.741 102.394 120.475 101.443 120.475 100.24ZM121.746 100.384C121.746 101.218 121.917 101.874 122.259 102.353C122.601 102.826 123.079 103.063 123.694 103.063C124.492 103.063 125.077 102.701 125.451 101.977V98.5996C125.064 97.8932 124.483 97.54 123.708 97.54C123.093 97.54 122.612 97.7793 122.266 98.2578C121.919 98.7363 121.746 99.445 121.746 100.384ZM128.302 100.233C128.302 99.5088 128.443 98.8571 128.726 98.2783C129.013 97.6995 129.409 97.2529 129.915 96.9385C130.425 96.624 131.007 96.4668 131.658 96.4668C132.665 96.4668 133.479 96.8154 134.099 97.5127C134.723 98.21 135.035 99.1374 135.035 100.295V100.384C135.035 101.104 134.896 101.751 134.618 102.325C134.345 102.895 133.951 103.339 133.436 103.658C132.925 103.977 132.337 104.137 131.672 104.137C130.669 104.137 129.856 103.788 129.231 103.091C128.612 102.394 128.302 101.471 128.302 100.322V100.233ZM129.573 100.384C129.573 101.204 129.762 101.863 130.141 102.359C130.523 102.856 131.034 103.104 131.672 103.104C132.314 103.104 132.825 102.854 133.203 102.353C133.581 101.847 133.771 101.14 133.771 100.233C133.771 99.4222 133.577 98.766 133.189 98.2646C132.807 97.7588 132.296 97.5059 131.658 97.5059C131.034 97.5059 130.53 97.7542 130.147 98.251C129.765 98.7477 129.573 99.4587 129.573 100.384ZM136.286 100.233C136.286 99.5088 136.427 98.8571 136.71 98.2783C136.997 97.6995 137.394 97.2529 137.899 96.9385C138.41 96.624 138.991 96.4668 139.643 96.4668C140.65 96.4668 141.463 96.8154 142.083 97.5127C142.707 98.21 143.02 99.1374 143.02 100.295V100.384C143.02 101.104 142.881 101.751 142.603 102.325C142.329 102.895 141.935 103.339 141.42 103.658C140.91 103.977 140.322 104.137 139.656 104.137C138.654 104.137 137.84 103.788 137.216 103.091C136.596 102.394 136.286 101.471 136.286 100.322V100.233ZM137.558 100.384C137.558 101.204 137.747 101.863 138.125 102.359C138.508 102.856 139.018 103.104 139.656 103.104C140.299 103.104 140.809 102.854 141.188 102.353C141.566 101.847 141.755 101.14 141.755 100.233C141.755 99.4222 141.561 98.766 141.174 98.2646C140.791 97.7588 140.281 97.5059 139.643 97.5059C139.018 97.5059 138.515 97.7542 138.132 98.251C137.749 98.7477 137.558 99.4587 137.558 100.384ZM144.298 100.24C144.298 99.1055 144.567 98.194 145.104 97.5059C145.642 96.8132 146.346 96.4668 147.217 96.4668C148.083 96.4668 148.769 96.763 149.274 97.3555V93.5H150.539V104H149.377L149.315 103.207C148.81 103.827 148.105 104.137 147.203 104.137C146.346 104.137 145.647 103.786 145.104 103.084C144.567 102.382 144.298 101.466 144.298 100.336V100.24ZM145.562 100.384C145.562 101.222 145.736 101.879 146.082 102.353C146.428 102.826 146.907 103.063 147.518 103.063C148.32 103.063 148.905 102.703 149.274 101.983V98.5859C148.896 97.8887 148.315 97.54 147.531 97.54C146.911 97.54 146.428 97.7793 146.082 98.2578C145.736 98.7363 145.562 99.445 145.562 100.384ZM159.556 97.7383C159.364 97.7064 159.157 97.6904 158.934 97.6904C158.104 97.6904 157.541 98.0436 157.245 98.75V104H155.98V96.6035H157.211L157.231 97.458C157.646 96.7972 158.234 96.4668 158.995 96.4668C159.241 96.4668 159.428 96.4987 159.556 96.5625V97.7383ZM163.657 104.137C162.655 104.137 161.839 103.809 161.21 103.152C160.581 102.492 160.267 101.61 160.267 100.507V100.274C160.267 99.5407 160.406 98.8867 160.684 98.3125C160.966 97.7337 161.358 97.2826 161.859 96.959C162.365 96.6309 162.912 96.4668 163.5 96.4668C164.462 96.4668 165.209 96.7835 165.742 97.417C166.275 98.0505 166.542 98.9574 166.542 100.138V100.664H161.531C161.549 101.393 161.761 101.983 162.167 102.435C162.577 102.881 163.097 103.104 163.726 103.104C164.172 103.104 164.55 103.013 164.86 102.831C165.17 102.649 165.441 102.407 165.674 102.106L166.446 102.708C165.826 103.66 164.897 104.137 163.657 104.137ZM163.5 97.5059C162.99 97.5059 162.561 97.6927 162.215 98.0664C161.868 98.4355 161.654 98.9551 161.572 99.625H165.277V99.5293C165.241 98.8867 165.068 98.39 164.758 98.0391C164.448 97.6836 164.029 97.5059 163.5 97.5059ZM172.318 102.038C172.318 101.696 172.188 101.432 171.929 101.245C171.674 101.054 171.225 100.89 170.582 100.753C169.944 100.616 169.436 100.452 169.058 100.261C168.684 100.069 168.406 99.8415 168.224 99.5771C168.046 99.3128 167.957 98.9984 167.957 98.6338C167.957 98.0277 168.212 97.515 168.723 97.0957C169.238 96.6764 169.894 96.4668 170.691 96.4668C171.53 96.4668 172.209 96.6833 172.729 97.1162C173.253 97.5492 173.515 98.1029 173.515 98.7773H172.243C172.243 98.431 172.095 98.1325 171.799 97.8818C171.507 97.6312 171.138 97.5059 170.691 97.5059C170.231 97.5059 169.871 97.6061 169.611 97.8066C169.352 98.0072 169.222 98.2692 169.222 98.5928C169.222 98.8981 169.342 99.1283 169.584 99.2832C169.826 99.4382 170.261 99.5863 170.89 99.7275C171.523 99.8688 172.036 100.037 172.428 100.233C172.82 100.429 173.109 100.666 173.296 100.944C173.487 101.218 173.583 101.553 173.583 101.949C173.583 102.61 173.319 103.141 172.79 103.542C172.261 103.938 171.576 104.137 170.732 104.137C170.14 104.137 169.616 104.032 169.16 103.822C168.704 103.613 168.347 103.321 168.087 102.947C167.832 102.569 167.704 102.161 167.704 101.724H168.969C168.992 102.147 169.16 102.485 169.475 102.735C169.794 102.981 170.213 103.104 170.732 103.104C171.211 103.104 171.594 103.009 171.881 102.817C172.173 102.621 172.318 102.362 172.318 102.038ZM179.797 103.269C179.305 103.847 178.582 104.137 177.63 104.137C176.841 104.137 176.24 103.909 175.825 103.453C175.415 102.993 175.208 102.314 175.203 101.416V96.6035H176.468V101.382C176.468 102.503 176.924 103.063 177.835 103.063C178.801 103.063 179.444 102.703 179.763 101.983V96.6035H181.027V104H179.824L179.797 103.269ZM184.145 96.6035L184.179 97.4238C184.721 96.7858 185.452 96.4668 186.373 96.4668C187.408 96.4668 188.112 96.8633 188.485 97.6562C188.731 97.3008 189.05 97.0137 189.442 96.7949C189.839 96.5762 190.306 96.4668 190.844 96.4668C192.466 96.4668 193.291 97.3258 193.318 99.0439V104H192.054V99.1191C192.054 98.5905 191.933 98.1963 191.691 97.9365C191.45 97.6722 191.044 97.54 190.475 97.54C190.005 97.54 189.616 97.6813 189.306 97.9639C188.996 98.2419 188.816 98.6178 188.766 99.0918V104H187.494V99.1533C187.494 98.0778 186.968 97.54 185.915 97.54C185.086 97.54 184.518 97.8932 184.213 98.5996V104H182.948V96.6035H184.145ZM198.302 104.137C197.299 104.137 196.483 103.809 195.854 103.152C195.226 102.492 194.911 101.61 194.911 100.507V100.274C194.911 99.5407 195.05 98.8867 195.328 98.3125C195.611 97.7337 196.003 97.2826 196.504 96.959C197.01 96.6309 197.557 96.4668 198.145 96.4668C199.106 96.4668 199.854 96.7835 200.387 97.417C200.92 98.0505 201.187 98.9574 201.187 100.138V100.664H196.176C196.194 101.393 196.406 101.983 196.812 102.435C197.222 102.881 197.741 103.104 198.37 103.104C198.817 103.104 199.195 103.013 199.505 102.831C199.815 102.649 200.086 102.407 200.318 102.106L201.091 102.708C200.471 103.66 199.541 104.137 198.302 104.137ZM198.145 97.5059C197.634 97.5059 197.206 97.6927 196.859 98.0664C196.513 98.4355 196.299 98.9551 196.217 99.625H199.922V99.5293C199.885 98.8867 199.712 98.39 199.402 98.0391C199.092 97.6836 198.673 97.5059 198.145 97.5059ZM205.794 100.233C205.794 99.5088 205.935 98.8571 206.218 98.2783C206.505 97.6995 206.901 97.2529 207.407 96.9385C207.918 96.624 208.499 96.4668 209.15 96.4668C210.158 96.4668 210.971 96.8154 211.591 97.5127C212.215 98.21 212.527 99.1374 212.527 100.295V100.384C212.527 101.104 212.388 101.751 212.11 102.325C211.837 102.895 211.443 103.339 210.928 103.658C210.417 103.977 209.829 104.137 209.164 104.137C208.161 104.137 207.348 103.788 206.724 103.091C206.104 102.394 205.794 101.471 205.794 100.322V100.233ZM207.065 100.384C207.065 101.204 207.255 101.863 207.633 102.359C208.016 102.856 208.526 103.104 209.164 103.104C209.807 103.104 210.317 102.854 210.695 102.353C211.074 101.847 211.263 101.14 211.263 100.233C211.263 99.4222 211.069 98.766 210.682 98.2646C210.299 97.7588 209.788 97.5059 209.15 97.5059C208.526 97.5059 208.022 97.7542 207.64 98.251C207.257 98.7477 207.065 99.4587 207.065 100.384ZM215.31 96.6035L215.351 97.5332C215.916 96.8223 216.654 96.4668 217.565 96.4668C219.129 96.4668 219.917 97.3486 219.931 99.1123V104H218.666V99.1055C218.661 98.5723 218.538 98.1781 218.297 97.9229C218.06 97.6676 217.688 97.54 217.183 97.54C216.772 97.54 216.412 97.6494 216.103 97.8682C215.793 98.0869 215.551 98.374 215.378 98.7295V104H214.113V96.6035H215.31ZM226.575 97.499C227.136 96.8109 227.865 96.4668 228.763 96.4668C230.326 96.4668 231.114 97.3486 231.128 99.1123V104H229.863V99.1055C229.859 98.5723 229.736 98.1781 229.494 97.9229C229.257 97.6676 228.886 97.54 228.38 97.54C227.97 97.54 227.61 97.6494 227.3 97.8682C226.99 98.0869 226.748 98.374 226.575 98.7295V104H225.311V93.5H226.575V97.499ZM237.588 104C237.515 103.854 237.456 103.594 237.41 103.221C236.822 103.831 236.12 104.137 235.305 104.137C234.576 104.137 233.976 103.932 233.507 103.521C233.042 103.107 232.81 102.583 232.81 101.949C232.81 101.179 233.101 100.582 233.685 100.158C234.272 99.7298 235.097 99.5156 236.159 99.5156H237.39V98.9346C237.39 98.4925 237.257 98.1416 236.993 97.8818C236.729 97.6175 236.339 97.4854 235.824 97.4854C235.373 97.4854 234.995 97.5993 234.689 97.8271C234.384 98.055 234.231 98.3307 234.231 98.6543H232.96C232.96 98.2852 233.09 97.9297 233.35 97.5879C233.614 97.2415 233.969 96.9681 234.416 96.7676C234.867 96.5671 235.362 96.4668 235.899 96.4668C236.752 96.4668 237.419 96.681 237.902 97.1094C238.385 97.5332 238.636 98.1188 238.654 98.8662V102.271C238.654 102.95 238.741 103.49 238.914 103.891V104H237.588ZM235.489 103.036C235.886 103.036 236.262 102.934 236.617 102.729C236.973 102.523 237.23 102.257 237.39 101.929V100.411H236.398C234.849 100.411 234.074 100.865 234.074 101.771C234.074 102.168 234.206 102.478 234.471 102.701C234.735 102.924 235.075 103.036 235.489 103.036ZM241.833 96.6035L241.874 97.5332C242.439 96.8223 243.177 96.4668 244.089 96.4668C245.652 96.4668 246.44 97.3486 246.454 99.1123V104H245.189V99.1055C245.185 98.5723 245.062 98.1781 244.82 97.9229C244.583 97.6676 244.212 97.54 243.706 97.54C243.296 97.54 242.936 97.6494 242.626 97.8682C242.316 98.0869 242.075 98.374 241.901 98.7295V104H240.637V96.6035H241.833ZM248.054 100.24C248.054 99.1055 248.323 98.194 248.86 97.5059C249.398 96.8132 250.102 96.4668 250.973 96.4668C251.839 96.4668 252.524 96.763 253.03 97.3555V93.5H254.295V104H253.133L253.071 103.207C252.565 103.827 251.861 104.137 250.959 104.137C250.102 104.137 249.403 103.786 248.86 103.084C248.323 102.382 248.054 101.466 248.054 100.336V100.24ZM249.318 100.384C249.318 101.222 249.492 101.879 249.838 102.353C250.184 102.826 250.663 103.063 251.273 103.063C252.076 103.063 252.661 102.703 253.03 101.983V98.5859C252.652 97.8887 252.071 97.54 251.287 97.54C250.667 97.54 250.184 97.7793 249.838 98.2578C249.492 98.7363 249.318 99.445 249.318 100.384ZM266.285 102.257L267.707 96.6035H268.972L266.818 104H265.793L263.995 98.3945L262.245 104H261.22L259.073 96.6035H260.331L261.787 102.141L263.51 96.6035H264.528L266.285 102.257ZM271.528 97.499C272.089 96.8109 272.818 96.4668 273.716 96.4668C275.279 96.4668 276.067 97.3486 276.081 99.1123V104H274.816V99.1055C274.812 98.5723 274.689 98.1781 274.447 97.9229C274.21 97.6676 273.839 97.54 273.333 97.54C272.923 97.54 272.563 97.6494 272.253 97.8682C271.943 98.0869 271.701 98.374 271.528 98.7295V104H270.264V93.5H271.528V97.499ZM281.044 104.137C280.041 104.137 279.226 103.809 278.597 103.152C277.968 102.492 277.653 101.61 277.653 100.507V100.274C277.653 99.5407 277.792 98.8867 278.07 98.3125C278.353 97.7337 278.745 97.2826 279.246 96.959C279.752 96.6309 280.299 96.4668 280.887 96.4668C281.848 96.4668 282.596 96.7835 283.129 97.417C283.662 98.0505 283.929 98.9574 283.929 100.138V100.664H278.918C278.936 101.393 279.148 101.983 279.554 102.435C279.964 102.881 280.483 103.104 281.112 103.104C281.559 103.104 281.937 103.013 282.247 102.831C282.557 102.649 282.828 102.407 283.061 102.106L283.833 102.708C283.213 103.66 282.284 104.137 281.044 104.137ZM280.887 97.5059C280.376 97.5059 279.948 97.6927 279.602 98.0664C279.255 98.4355 279.041 98.9551 278.959 99.625H282.664V99.5293C282.628 98.8867 282.454 98.39 282.145 98.0391C281.835 97.6836 281.415 97.5059 280.887 97.5059ZM286.595 96.6035L286.636 97.5332C287.201 96.8223 287.939 96.4668 288.851 96.4668C290.414 96.4668 291.202 97.3486 291.216 99.1123V104H289.951V99.1055C289.947 98.5723 289.824 98.1781 289.582 97.9229C289.345 97.6676 288.974 97.54 288.468 97.54C288.058 97.54 287.698 97.6494 287.388 97.8682C287.078 98.0869 286.836 98.374 286.663 98.7295V104H285.398V96.6035H286.595ZM296.295 100.24C296.295 99.0872 296.562 98.1712 297.095 97.4922C297.628 96.8086 298.334 96.4668 299.214 96.4668C300.116 96.4668 300.82 96.7858 301.326 97.4238L301.388 96.6035H302.543V103.822C302.543 104.779 302.258 105.534 301.688 106.085C301.123 106.636 300.362 106.912 299.405 106.912C298.872 106.912 298.35 106.798 297.84 106.57C297.329 106.342 296.94 106.03 296.671 105.634L297.327 104.875C297.869 105.545 298.533 105.88 299.316 105.88C299.932 105.88 300.41 105.707 300.752 105.36C301.098 105.014 301.271 104.526 301.271 103.897V103.262C300.766 103.845 300.075 104.137 299.2 104.137C298.334 104.137 297.632 103.788 297.095 103.091C296.562 102.394 296.295 101.443 296.295 100.24ZM297.566 100.384C297.566 101.218 297.737 101.874 298.079 102.353C298.421 102.826 298.899 103.063 299.515 103.063C300.312 103.063 300.898 102.701 301.271 101.977V98.5996C300.884 97.8932 300.303 97.54 299.528 97.54C298.913 97.54 298.432 97.7793 298.086 98.2578C297.74 98.7363 297.566 99.445 297.566 100.384ZM304.122 100.233C304.122 99.5088 304.263 98.8571 304.546 98.2783C304.833 97.6995 305.229 97.2529 305.735 96.9385C306.246 96.624 306.827 96.4668 307.479 96.4668C308.486 96.4668 309.299 96.8154 309.919 97.5127C310.543 98.21 310.855 99.1374 310.855 100.295V100.384C310.855 101.104 310.716 101.751 310.438 102.325C310.165 102.895 309.771 103.339 309.256 103.658C308.745 103.977 308.158 104.137 307.492 104.137C306.49 104.137 305.676 103.788 305.052 103.091C304.432 102.394 304.122 101.471 304.122 100.322V100.233ZM305.394 100.384C305.394 101.204 305.583 101.863 305.961 102.359C306.344 102.856 306.854 103.104 307.492 103.104C308.135 103.104 308.645 102.854 309.023 102.353C309.402 101.847 309.591 101.14 309.591 100.233C309.591 99.4222 309.397 98.766 309.01 98.2646C308.627 97.7588 308.117 97.5059 307.479 97.5059C306.854 97.5059 306.351 97.7542 305.968 98.251C305.585 98.7477 305.394 99.4587 305.394 100.384ZM313.815 104H312.551V96.6035H313.815V104ZM312.448 94.6416C312.448 94.4365 312.51 94.2633 312.633 94.1221C312.76 93.9808 312.947 93.9102 313.193 93.9102C313.439 93.9102 313.626 93.9808 313.754 94.1221C313.882 94.2633 313.945 94.4365 313.945 94.6416C313.945 94.8467 313.882 95.0176 313.754 95.1543C313.626 95.291 313.439 95.3594 313.193 95.3594C312.947 95.3594 312.76 95.291 312.633 95.1543C312.51 95.0176 312.448 94.8467 312.448 94.6416ZM317.042 96.6035L317.083 97.5332C317.648 96.8223 318.386 96.4668 319.298 96.4668C320.861 96.4668 321.649 97.3486 321.663 99.1123V104H320.398V99.1055C320.394 98.5723 320.271 98.1781 320.029 97.9229C319.792 97.6676 319.421 97.54 318.915 97.54C318.505 97.54 318.145 97.6494 317.835 97.8682C317.525 98.0869 317.284 98.374 317.11 98.7295V104H315.846V96.6035H317.042ZM323.27 100.24C323.27 99.0872 323.536 98.1712 324.069 97.4922C324.603 96.8086 325.309 96.4668 326.188 96.4668C327.091 96.4668 327.795 96.7858 328.301 97.4238L328.362 96.6035H329.518V103.822C329.518 104.779 329.233 105.534 328.663 106.085C328.098 106.636 327.337 106.912 326.38 106.912C325.847 106.912 325.325 106.798 324.814 106.57C324.304 106.342 323.914 106.03 323.646 105.634L324.302 104.875C324.844 105.545 325.507 105.88 326.291 105.88C326.906 105.88 327.385 105.707 327.727 105.36C328.073 105.014 328.246 104.526 328.246 103.897V103.262C327.74 103.845 327.05 104.137 326.175 104.137C325.309 104.137 324.607 103.788 324.069 103.091C323.536 102.394 323.27 101.443 323.27 100.24ZM324.541 100.384C324.541 101.218 324.712 101.874 325.054 102.353C325.396 102.826 325.874 103.063 326.489 103.063C327.287 103.063 327.872 102.701 328.246 101.977V98.5996C327.859 97.8932 327.278 97.54 326.503 97.54C325.888 97.54 325.407 97.7793 325.061 98.2578C324.714 98.7363 324.541 99.445 324.541 100.384ZM334.569 100.233C334.569 99.5088 334.711 98.8571 334.993 98.2783C335.28 97.6995 335.677 97.2529 336.183 96.9385C336.693 96.624 337.274 96.4668 337.926 96.4668C338.933 96.4668 339.746 96.8154 340.366 97.5127C340.991 98.21 341.303 99.1374 341.303 100.295V100.384C341.303 101.104 341.164 101.751 340.886 102.325C340.612 102.895 340.218 103.339 339.703 103.658C339.193 103.977 338.605 104.137 337.939 104.137C336.937 104.137 336.123 103.788 335.499 103.091C334.879 102.394 334.569 101.471 334.569 100.322V100.233ZM335.841 100.384C335.841 101.204 336.03 101.863 336.408 102.359C336.791 102.856 337.301 103.104 337.939 103.104C338.582 103.104 339.092 102.854 339.471 102.353C339.849 101.847 340.038 101.14 340.038 100.233C340.038 99.4222 339.844 98.766 339.457 98.2646C339.074 97.7588 338.564 97.5059 337.926 97.5059C337.301 97.5059 336.798 97.7542 336.415 98.251C336.032 98.7477 335.841 99.4587 335.841 100.384ZM344.085 96.6035L344.126 97.5332C344.691 96.8223 345.429 96.4668 346.341 96.4668C347.904 96.4668 348.692 97.3486 348.706 99.1123V104H347.441V99.1055C347.437 98.5723 347.314 98.1781 347.072 97.9229C346.835 97.6676 346.464 97.54 345.958 97.54C345.548 97.54 345.188 97.6494 344.878 97.8682C344.568 98.0869 344.326 98.374 344.153 98.7295V104H342.889V96.6035H344.085ZM355.802 94.8125V96.6035H357.183V97.5811H355.802V102.168C355.802 102.464 355.863 102.688 355.986 102.838C356.109 102.984 356.319 103.057 356.615 103.057C356.761 103.057 356.962 103.029 357.217 102.975V104C356.884 104.091 356.561 104.137 356.246 104.137C355.681 104.137 355.255 103.966 354.968 103.624C354.681 103.282 354.537 102.797 354.537 102.168V97.5811H353.19V96.6035H354.537V94.8125H355.802ZM359.931 97.499C360.491 96.8109 361.22 96.4668 362.118 96.4668C363.681 96.4668 364.47 97.3486 364.483 99.1123V104H363.219V99.1055C363.214 98.5723 363.091 98.1781 362.85 97.9229C362.613 97.6676 362.241 97.54 361.735 97.54C361.325 97.54 360.965 97.6494 360.655 97.8682C360.345 98.0869 360.104 98.374 359.931 98.7295V104H358.666V93.5H359.931V97.499ZM369.446 104.137C368.444 104.137 367.628 103.809 366.999 103.152C366.37 102.492 366.056 101.61 366.056 100.507V100.274C366.056 99.5407 366.195 98.8867 366.473 98.3125C366.755 97.7337 367.147 97.2826 367.648 96.959C368.154 96.6309 368.701 96.4668 369.289 96.4668C370.251 96.4668 370.998 96.7835 371.531 97.417C372.064 98.0505 372.331 98.9574 372.331 100.138V100.664H367.32C367.339 101.393 367.55 101.983 367.956 102.435C368.366 102.881 368.886 103.104 369.515 103.104C369.961 103.104 370.34 103.013 370.649 102.831C370.959 102.649 371.23 102.407 371.463 102.106L372.235 102.708C371.616 103.66 370.686 104.137 369.446 104.137ZM369.289 97.5059C368.779 97.5059 368.35 97.6927 368.004 98.0664C367.658 98.4355 367.443 98.9551 367.361 99.625H371.066V99.5293C371.03 98.8867 370.857 98.39 370.547 98.0391C370.237 97.6836 369.818 97.5059 369.289 97.5059ZM64.2627 120.604V128.854C64.2627 130.276 63.6178 130.987 62.3281 130.987C62.0501 130.987 61.7926 130.946 61.5557 130.864V129.853C61.7015 129.889 61.8929 129.907 62.1299 129.907C62.4124 129.907 62.6266 129.83 62.7725 129.675C62.9229 129.524 62.998 129.26 62.998 128.882V120.604H64.2627ZM62.8682 118.642C62.8682 118.441 62.9297 118.27 63.0527 118.129C63.1803 117.983 63.3649 117.91 63.6064 117.91C63.8525 117.91 64.0394 117.981 64.167 118.122C64.2946 118.263 64.3584 118.437 64.3584 118.642C64.3584 118.847 64.2946 119.018 64.167 119.154C64.0394 119.291 63.8525 119.359 63.6064 119.359C63.3604 119.359 63.1758 119.291 63.0527 119.154C62.9297 119.018 62.8682 118.847 62.8682 118.642ZM65.9717 124.233C65.9717 123.509 66.113 122.857 66.3955 122.278C66.6826 121.7 67.0791 121.253 67.585 120.938C68.0954 120.624 68.6764 120.467 69.3281 120.467C70.3353 120.467 71.1488 120.815 71.7686 121.513C72.3929 122.21 72.7051 123.137 72.7051 124.295V124.384C72.7051 125.104 72.5661 125.751 72.2881 126.325C72.0146 126.895 71.6204 127.339 71.1055 127.658C70.5951 127.977 70.0072 128.137 69.3418 128.137C68.3392 128.137 67.5257 127.788 66.9014 127.091C66.2816 126.394 65.9717 125.471 65.9717 124.322V124.233ZM67.2432 124.384C67.2432 125.204 67.4323 125.863 67.8105 126.359C68.1934 126.856 68.7038 127.104 69.3418 127.104C69.9844 127.104 70.4948 126.854 70.873 126.353C71.2513 125.847 71.4404 125.14 71.4404 124.233C71.4404 123.422 71.2467 122.766 70.8594 122.265C70.4766 121.759 69.9661 121.506 69.3281 121.506C68.7038 121.506 68.2002 121.754 67.8174 122.251C67.4346 122.748 67.2432 123.459 67.2432 124.384ZM80.5527 124.384C80.5527 125.514 80.293 126.423 79.7734 127.111C79.2539 127.795 78.5566 128.137 77.6816 128.137C76.7474 128.137 76.0251 127.806 75.5146 127.146L75.4531 128H74.291V117.5H75.5557V121.417C76.0661 120.784 76.7702 120.467 77.668 120.467C78.5658 120.467 79.2699 120.806 79.7803 121.485C80.2952 122.164 80.5527 123.094 80.5527 124.274V124.384ZM79.2881 124.24C79.2881 123.379 79.1217 122.714 78.7891 122.244C78.4564 121.775 77.9779 121.54 77.3535 121.54C76.5195 121.54 75.9202 121.927 75.5557 122.702V125.901C75.943 126.676 76.5469 127.063 77.3672 127.063C77.9733 127.063 78.445 126.829 78.7822 126.359C79.1195 125.89 79.2881 125.184 79.2881 124.24ZM86.8896 121.499C87.4502 120.811 88.1794 120.467 89.0771 120.467C90.6403 120.467 91.4287 121.349 91.4424 123.112V128H90.1777V123.105C90.1732 122.572 90.0501 122.178 89.8086 121.923C89.5716 121.668 89.2002 121.54 88.6943 121.54C88.2842 121.54 87.9242 121.649 87.6143 121.868C87.3044 122.087 87.0628 122.374 86.8896 122.729V128H85.625V117.5H86.8896V121.499ZM97.9023 127.269C97.4102 127.847 96.6878 128.137 95.7354 128.137C94.9469 128.137 94.3454 127.909 93.9307 127.453C93.5205 126.993 93.3132 126.314 93.3086 125.416V120.604H94.5732V125.382C94.5732 126.503 95.029 127.063 95.9404 127.063C96.9066 127.063 97.5492 126.703 97.8682 125.983V120.604H99.1328V128H97.9297L97.9023 127.269ZM102.257 120.604L102.298 121.533C102.863 120.822 103.601 120.467 104.513 120.467C106.076 120.467 106.864 121.349 106.878 123.112V128H105.613V123.105C105.609 122.572 105.486 122.178 105.244 121.923C105.007 121.668 104.636 121.54 104.13 121.54C103.72 121.54 103.36 121.649 103.05 121.868C102.74 122.087 102.498 122.374 102.325 122.729V128H101.061V120.604H102.257ZM110.501 118.812V120.604H111.882V121.581H110.501V126.168C110.501 126.464 110.562 126.688 110.686 126.838C110.809 126.984 111.018 127.057 111.314 127.057C111.46 127.057 111.661 127.029 111.916 126.975V128C111.583 128.091 111.26 128.137 110.945 128.137C110.38 128.137 109.954 127.966 109.667 127.624C109.38 127.282 109.236 126.797 109.236 126.168V121.581H107.89V120.604H109.236V118.812H110.501ZM118.212 128H116.947V120.604H118.212V128ZM116.845 118.642C116.845 118.437 116.906 118.263 117.029 118.122C117.157 117.981 117.344 117.91 117.59 117.91C117.836 117.91 118.023 117.981 118.15 118.122C118.278 118.263 118.342 118.437 118.342 118.642C118.342 118.847 118.278 119.018 118.15 119.154C118.023 119.291 117.836 119.359 117.59 119.359C117.344 119.359 117.157 119.291 117.029 119.154C116.906 119.018 116.845 118.847 116.845 118.642ZM124.549 126.038C124.549 125.696 124.419 125.432 124.159 125.245C123.904 125.054 123.455 124.89 122.812 124.753C122.174 124.616 121.666 124.452 121.288 124.261C120.914 124.069 120.636 123.841 120.454 123.577C120.276 123.313 120.188 122.998 120.188 122.634C120.188 122.028 120.443 121.515 120.953 121.096C121.468 120.676 122.124 120.467 122.922 120.467C123.76 120.467 124.439 120.683 124.959 121.116C125.483 121.549 125.745 122.103 125.745 122.777H124.474C124.474 122.431 124.326 122.132 124.029 121.882C123.738 121.631 123.368 121.506 122.922 121.506C122.462 121.506 122.102 121.606 121.842 121.807C121.582 122.007 121.452 122.269 121.452 122.593C121.452 122.898 121.573 123.128 121.814 123.283C122.056 123.438 122.491 123.586 123.12 123.728C123.754 123.869 124.266 124.037 124.658 124.233C125.05 124.429 125.34 124.666 125.526 124.944C125.718 125.218 125.813 125.553 125.813 125.949C125.813 126.61 125.549 127.141 125.021 127.542C124.492 127.938 123.806 128.137 122.963 128.137C122.37 128.137 121.846 128.032 121.391 127.822C120.935 127.613 120.577 127.321 120.317 126.947C120.062 126.569 119.935 126.161 119.935 125.724H121.199C121.222 126.147 121.391 126.485 121.705 126.735C122.024 126.981 122.443 127.104 122.963 127.104C123.441 127.104 123.824 127.009 124.111 126.817C124.403 126.621 124.549 126.362 124.549 126.038ZM133.9 127.104C134.352 127.104 134.746 126.968 135.083 126.694C135.42 126.421 135.607 126.079 135.644 125.669H136.84C136.817 126.093 136.671 126.496 136.402 126.879C136.133 127.262 135.773 127.567 135.322 127.795C134.876 128.023 134.402 128.137 133.9 128.137C132.893 128.137 132.091 127.802 131.494 127.132C130.902 126.457 130.605 125.537 130.605 124.37V124.158C130.605 123.438 130.738 122.798 131.002 122.237C131.266 121.677 131.645 121.242 132.137 120.932C132.633 120.622 133.219 120.467 133.894 120.467C134.723 120.467 135.411 120.715 135.958 121.212C136.509 121.709 136.803 122.354 136.84 123.146H135.644C135.607 122.668 135.425 122.276 135.097 121.971C134.773 121.661 134.372 121.506 133.894 121.506C133.251 121.506 132.752 121.738 132.396 122.203C132.046 122.663 131.87 123.331 131.87 124.206V124.445C131.87 125.298 132.046 125.954 132.396 126.414C132.747 126.874 133.249 127.104 133.9 127.104ZM141.837 121.738C141.646 121.706 141.438 121.69 141.215 121.69C140.385 121.69 139.823 122.044 139.526 122.75V128H138.262V120.604H139.492L139.513 121.458C139.927 120.797 140.515 120.467 141.276 120.467C141.522 120.467 141.709 120.499 141.837 120.562V121.738ZM147.572 127.269C147.08 127.847 146.358 128.137 145.405 128.137C144.617 128.137 144.015 127.909 143.601 127.453C143.19 126.993 142.983 126.314 142.979 125.416V120.604H144.243V125.382C144.243 126.503 144.699 127.063 145.61 127.063C146.576 127.063 147.219 126.703 147.538 125.983V120.604H148.803V128H147.6L147.572 127.269ZM153.697 127.104C154.148 127.104 154.543 126.968 154.88 126.694C155.217 126.421 155.404 126.079 155.44 125.669H156.637C156.614 126.093 156.468 126.496 156.199 126.879C155.93 127.262 155.57 127.567 155.119 127.795C154.673 128.023 154.199 128.137 153.697 128.137C152.69 128.137 151.888 127.802 151.291 127.132C150.699 126.457 150.402 125.537 150.402 124.37V124.158C150.402 123.438 150.535 122.798 150.799 122.237C151.063 121.677 151.441 121.242 151.934 120.932C152.43 120.622 153.016 120.467 153.69 120.467C154.52 120.467 155.208 120.715 155.755 121.212C156.306 121.709 156.6 122.354 156.637 123.146H155.44C155.404 122.668 155.222 122.276 154.894 121.971C154.57 121.661 154.169 121.506 153.69 121.506C153.048 121.506 152.549 121.738 152.193 122.203C151.842 122.663 151.667 123.331 151.667 124.206V124.445C151.667 125.298 151.842 125.954 152.193 126.414C152.544 126.874 153.046 127.104 153.697 127.104ZM159.433 128H158.168V120.604H159.433V128ZM158.065 118.642C158.065 118.437 158.127 118.263 158.25 118.122C158.378 117.981 158.564 117.91 158.811 117.91C159.057 117.91 159.243 117.981 159.371 118.122C159.499 118.263 159.562 118.437 159.562 118.642C159.562 118.847 159.499 119.018 159.371 119.154C159.243 119.291 159.057 119.359 158.811 119.359C158.564 119.359 158.378 119.291 158.25 119.154C158.127 119.018 158.065 118.847 158.065 118.642ZM166.029 128C165.956 127.854 165.897 127.594 165.852 127.221C165.264 127.831 164.562 128.137 163.746 128.137C163.017 128.137 162.418 127.932 161.948 127.521C161.483 127.107 161.251 126.583 161.251 125.949C161.251 125.179 161.543 124.582 162.126 124.158C162.714 123.73 163.539 123.516 164.601 123.516H165.831V122.935C165.831 122.493 165.699 122.142 165.435 121.882C165.17 121.618 164.781 121.485 164.266 121.485C163.814 121.485 163.436 121.599 163.131 121.827C162.826 122.055 162.673 122.331 162.673 122.654H161.401C161.401 122.285 161.531 121.93 161.791 121.588C162.055 121.242 162.411 120.968 162.857 120.768C163.309 120.567 163.803 120.467 164.341 120.467C165.193 120.467 165.861 120.681 166.344 121.109C166.827 121.533 167.077 122.119 167.096 122.866V126.271C167.096 126.95 167.182 127.49 167.355 127.891V128H166.029ZM163.931 127.036C164.327 127.036 164.703 126.934 165.059 126.729C165.414 126.523 165.672 126.257 165.831 125.929V124.411H164.84C163.29 124.411 162.516 124.865 162.516 125.771C162.516 126.168 162.648 126.478 162.912 126.701C163.176 126.924 163.516 127.036 163.931 127.036ZM170.452 128H169.188V117.5H170.452V128ZM172.441 129.982L171.724 129.49C172.152 128.893 172.375 128.278 172.394 127.645V126.503H173.631V127.494C173.631 127.954 173.517 128.415 173.289 128.875C173.066 129.335 172.783 129.704 172.441 129.982ZM183.27 128C183.197 127.854 183.137 127.594 183.092 127.221C182.504 127.831 181.802 128.137 180.986 128.137C180.257 128.137 179.658 127.932 179.188 127.521C178.724 127.107 178.491 126.583 178.491 125.949C178.491 125.179 178.783 124.582 179.366 124.158C179.954 123.73 180.779 123.516 181.841 123.516H183.071V122.935C183.071 122.493 182.939 122.142 182.675 121.882C182.41 121.618 182.021 121.485 181.506 121.485C181.055 121.485 180.676 121.599 180.371 121.827C180.066 122.055 179.913 122.331 179.913 122.654H178.642C178.642 122.285 178.771 121.93 179.031 121.588C179.296 121.242 179.651 120.968 180.098 120.768C180.549 120.567 181.043 120.467 181.581 120.467C182.433 120.467 183.101 120.681 183.584 121.109C184.067 121.533 184.318 122.119 184.336 122.866V126.271C184.336 126.95 184.423 127.49 184.596 127.891V128H183.27ZM181.171 127.036C181.567 127.036 181.943 126.934 182.299 126.729C182.654 126.523 182.912 126.257 183.071 125.929V124.411H182.08C180.531 124.411 179.756 124.865 179.756 125.771C179.756 126.168 179.888 126.478 180.152 126.701C180.417 126.924 180.756 127.036 181.171 127.036ZM187.515 120.604L187.556 121.533C188.121 120.822 188.859 120.467 189.771 120.467C191.334 120.467 192.122 121.349 192.136 123.112V128H190.871V123.105C190.867 122.572 190.743 122.178 190.502 121.923C190.265 121.668 189.894 121.54 189.388 121.54C188.978 121.54 188.618 121.649 188.308 121.868C187.998 122.087 187.756 122.374 187.583 122.729V128H186.318V120.604H187.515ZM193.735 124.24C193.735 123.105 194.004 122.194 194.542 121.506C195.08 120.813 195.784 120.467 196.654 120.467C197.52 120.467 198.206 120.763 198.712 121.355V117.5H199.977V128H198.814L198.753 127.207C198.247 127.827 197.543 128.137 196.641 128.137C195.784 128.137 195.084 127.786 194.542 127.084C194.004 126.382 193.735 125.466 193.735 124.336V124.24ZM195 124.384C195 125.222 195.173 125.879 195.52 126.353C195.866 126.826 196.344 127.063 196.955 127.063C197.757 127.063 198.343 126.703 198.712 125.983V122.586C198.334 121.889 197.753 121.54 196.969 121.54C196.349 121.54 195.866 121.779 195.52 122.258C195.173 122.736 195 123.445 195 124.384ZM211.967 126.257L213.389 120.604H214.653L212.5 128H211.475L209.677 122.395L207.927 128H206.901L204.755 120.604H206.013L207.469 126.141L209.191 120.604H210.21L211.967 126.257ZM217.319 128H216.055V120.604H217.319V128ZM215.952 118.642C215.952 118.437 216.014 118.263 216.137 118.122C216.264 117.981 216.451 117.91 216.697 117.91C216.943 117.91 217.13 117.981 217.258 118.122C217.385 118.263 217.449 118.437 217.449 118.642C217.449 118.847 217.385 119.018 217.258 119.154C217.13 119.291 216.943 119.359 216.697 119.359C216.451 119.359 216.264 119.291 216.137 119.154C216.014 119.018 215.952 118.847 215.952 118.642ZM220.724 128H219.459V117.5H220.724V128ZM224.128 128H222.863V117.5H224.128V128ZM230.82 120.604L230.854 121.424C231.397 120.786 232.128 120.467 233.049 120.467C234.083 120.467 234.787 120.863 235.161 121.656C235.407 121.301 235.726 121.014 236.118 120.795C236.515 120.576 236.982 120.467 237.52 120.467C239.142 120.467 239.967 121.326 239.994 123.044V128H238.729V123.119C238.729 122.59 238.609 122.196 238.367 121.937C238.126 121.672 237.72 121.54 237.15 121.54C236.681 121.54 236.291 121.681 235.981 121.964C235.672 122.242 235.492 122.618 235.441 123.092V128H234.17V123.153C234.17 122.078 233.644 121.54 232.591 121.54C231.761 121.54 231.194 121.893 230.889 122.6V128H229.624V120.604H230.82ZM246.475 128C246.402 127.854 246.342 127.594 246.297 127.221C245.709 127.831 245.007 128.137 244.191 128.137C243.462 128.137 242.863 127.932 242.394 127.521C241.929 127.107 241.696 126.583 241.696 125.949C241.696 125.179 241.988 124.582 242.571 124.158C243.159 123.73 243.984 123.516 245.046 123.516H246.276V122.935C246.276 122.493 246.144 122.142 245.88 121.882C245.616 121.618 245.226 121.485 244.711 121.485C244.26 121.485 243.882 121.599 243.576 121.827C243.271 122.055 243.118 122.331 243.118 122.654H241.847C241.847 122.285 241.977 121.93 242.236 121.588C242.501 121.242 242.856 120.968 243.303 120.768C243.754 120.567 244.248 120.467 244.786 120.467C245.638 120.467 246.306 120.681 246.789 121.109C247.272 121.533 247.523 122.119 247.541 122.866V126.271C247.541 126.95 247.628 127.49 247.801 127.891V128H246.475ZM244.376 127.036C244.772 127.036 245.148 126.934 245.504 126.729C245.859 126.523 246.117 126.257 246.276 125.929V124.411H245.285C243.736 124.411 242.961 124.865 242.961 125.771C242.961 126.168 243.093 126.478 243.357 126.701C243.622 126.924 243.961 127.036 244.376 127.036ZM251.588 124.575L250.795 125.402V128H249.53V117.5H250.795V123.851L251.472 123.037L253.775 120.604H255.313L252.436 123.693L255.648 128H254.165L251.588 124.575ZM259.552 128.137C258.549 128.137 257.733 127.809 257.104 127.152C256.476 126.492 256.161 125.61 256.161 124.507V124.274C256.161 123.541 256.3 122.887 256.578 122.312C256.861 121.734 257.253 121.283 257.754 120.959C258.26 120.631 258.807 120.467 259.395 120.467C260.356 120.467 261.104 120.784 261.637 121.417C262.17 122.05 262.437 122.957 262.437 124.138V124.664H257.426C257.444 125.393 257.656 125.983 258.062 126.435C258.472 126.881 258.991 127.104 259.62 127.104C260.067 127.104 260.445 127.013 260.755 126.831C261.065 126.649 261.336 126.407 261.568 126.106L262.341 126.708C261.721 127.66 260.791 128.137 259.552 128.137ZM259.395 121.506C258.884 121.506 258.456 121.693 258.109 122.066C257.763 122.436 257.549 122.955 257.467 123.625H261.172V123.529C261.135 122.887 260.962 122.39 260.652 122.039C260.342 121.684 259.923 121.506 259.395 121.506ZM269.799 126.147L271.521 120.604H272.875L269.901 129.142C269.441 130.372 268.71 130.987 267.707 130.987L267.468 130.967L266.996 130.878V129.853L267.338 129.88C267.766 129.88 268.099 129.793 268.336 129.62C268.577 129.447 268.776 129.13 268.931 128.67L269.211 127.918L266.572 120.604H267.953L269.799 126.147ZM273.565 124.233C273.565 123.509 273.707 122.857 273.989 122.278C274.276 121.7 274.673 121.253 275.179 120.938C275.689 120.624 276.27 120.467 276.922 120.467C277.929 120.467 278.743 120.815 279.362 121.513C279.987 122.21 280.299 123.137 280.299 124.295V124.384C280.299 125.104 280.16 125.751 279.882 126.325C279.608 126.895 279.214 127.339 278.699 127.658C278.189 127.977 277.601 128.137 276.936 128.137C275.933 128.137 275.119 127.788 274.495 127.091C273.875 126.394 273.565 125.471 273.565 124.322V124.233ZM274.837 124.384C274.837 125.204 275.026 125.863 275.404 126.359C275.787 126.856 276.298 127.104 276.936 127.104C277.578 127.104 278.089 126.854 278.467 126.353C278.845 125.847 279.034 125.14 279.034 124.233C279.034 123.422 278.84 122.766 278.453 122.265C278.07 121.759 277.56 121.506 276.922 121.506C276.298 121.506 275.794 121.754 275.411 122.251C275.028 122.748 274.837 123.459 274.837 124.384ZM286.451 127.269C285.959 127.847 285.237 128.137 284.284 128.137C283.496 128.137 282.894 127.909 282.479 127.453C282.069 126.993 281.862 126.314 281.857 125.416V120.604H283.122V125.382C283.122 126.503 283.578 127.063 284.489 127.063C285.455 127.063 286.098 126.703 286.417 125.983V120.604H287.682V128H286.479L286.451 127.269ZM293.185 121.738C292.993 121.706 292.786 121.69 292.562 121.69C291.733 121.69 291.17 122.044 290.874 122.75V128H289.609V120.604H290.84L290.86 121.458C291.275 120.797 291.863 120.467 292.624 120.467C292.87 120.467 293.057 120.499 293.185 120.562V121.738ZM302.133 126.038C302.133 125.696 302.003 125.432 301.743 125.245C301.488 125.054 301.039 124.89 300.396 124.753C299.758 124.616 299.25 124.452 298.872 124.261C298.498 124.069 298.22 123.841 298.038 123.577C297.86 123.313 297.771 122.998 297.771 122.634C297.771 122.028 298.027 121.515 298.537 121.096C299.052 120.676 299.708 120.467 300.506 120.467C301.344 120.467 302.023 120.683 302.543 121.116C303.067 121.549 303.329 122.103 303.329 122.777H302.058C302.058 122.431 301.91 122.132 301.613 121.882C301.322 121.631 300.952 121.506 300.506 121.506C300.046 121.506 299.686 121.606 299.426 121.807C299.166 122.007 299.036 122.269 299.036 122.593C299.036 122.898 299.157 123.128 299.398 123.283C299.64 123.438 300.075 123.586 300.704 123.728C301.338 123.869 301.85 124.037 302.242 124.233C302.634 124.429 302.924 124.666 303.11 124.944C303.302 125.218 303.397 125.553 303.397 125.949C303.397 126.61 303.133 127.141 302.604 127.542C302.076 127.938 301.39 128.137 300.547 128.137C299.954 128.137 299.43 128.032 298.975 127.822C298.519 127.613 298.161 127.321 297.901 126.947C297.646 126.569 297.519 126.161 297.519 125.724H298.783C298.806 126.147 298.975 126.485 299.289 126.735C299.608 126.981 300.027 127.104 300.547 127.104C301.025 127.104 301.408 127.009 301.695 126.817C301.987 126.621 302.133 126.362 302.133 126.038ZM308.114 128.137C307.112 128.137 306.296 127.809 305.667 127.152C305.038 126.492 304.724 125.61 304.724 124.507V124.274C304.724 123.541 304.863 122.887 305.141 122.312C305.423 121.734 305.815 121.283 306.316 120.959C306.822 120.631 307.369 120.467 307.957 120.467C308.919 120.467 309.666 120.784 310.199 121.417C310.732 122.05 310.999 122.957 310.999 124.138V124.664H305.988C306.007 125.393 306.218 125.983 306.624 126.435C307.034 126.881 307.554 127.104 308.183 127.104C308.629 127.104 309.007 127.013 309.317 126.831C309.627 126.649 309.898 126.407 310.131 126.106L310.903 126.708C310.284 127.66 309.354 128.137 308.114 128.137ZM307.957 121.506C307.447 121.506 307.018 121.693 306.672 122.066C306.326 122.436 306.111 122.955 306.029 123.625H309.734V123.529C309.698 122.887 309.525 122.39 309.215 122.039C308.905 121.684 308.486 121.506 307.957 121.506ZM317.035 128C316.962 127.854 316.903 127.594 316.857 127.221C316.27 127.831 315.568 128.137 314.752 128.137C314.023 128.137 313.424 127.932 312.954 127.521C312.489 127.107 312.257 126.583 312.257 125.949C312.257 125.179 312.549 124.582 313.132 124.158C313.72 123.73 314.545 123.516 315.606 123.516H316.837V122.935C316.837 122.493 316.705 122.142 316.44 121.882C316.176 121.618 315.786 121.485 315.271 121.485C314.82 121.485 314.442 121.599 314.137 121.827C313.831 122.055 313.679 122.331 313.679 122.654H312.407C312.407 122.285 312.537 121.93 312.797 121.588C313.061 121.242 313.417 120.968 313.863 120.768C314.314 120.567 314.809 120.467 315.347 120.467C316.199 120.467 316.867 120.681 317.35 121.109C317.833 121.533 318.083 122.119 318.102 122.866V126.271C318.102 126.95 318.188 127.49 318.361 127.891V128H317.035ZM314.937 127.036C315.333 127.036 315.709 126.934 316.064 126.729C316.42 126.523 316.677 126.257 316.837 125.929V124.411H315.846C314.296 124.411 313.521 124.865 313.521 125.771C313.521 126.168 313.654 126.478 313.918 126.701C314.182 126.924 314.522 127.036 314.937 127.036ZM323.659 121.738C323.468 121.706 323.26 121.69 323.037 121.69C322.208 121.69 321.645 122.044 321.349 122.75V128H320.084V120.604H321.314L321.335 121.458C321.75 120.797 322.338 120.467 323.099 120.467C323.345 120.467 323.532 120.499 323.659 120.562V121.738ZM327.658 127.104C328.109 127.104 328.504 126.968 328.841 126.694C329.178 126.421 329.365 126.079 329.401 125.669H330.598C330.575 126.093 330.429 126.496 330.16 126.879C329.891 127.262 329.531 127.567 329.08 127.795C328.633 128.023 328.16 128.137 327.658 128.137C326.651 128.137 325.849 127.802 325.252 127.132C324.66 126.457 324.363 125.537 324.363 124.37V124.158C324.363 123.438 324.495 122.798 324.76 122.237C325.024 121.677 325.402 121.242 325.895 120.932C326.391 120.622 326.977 120.467 327.651 120.467C328.481 120.467 329.169 120.715 329.716 121.212C330.267 121.709 330.561 122.354 330.598 123.146H329.401C329.365 122.668 329.183 122.276 328.854 121.971C328.531 121.661 328.13 121.506 327.651 121.506C327.009 121.506 326.51 121.738 326.154 122.203C325.803 122.663 325.628 123.331 325.628 124.206V124.445C325.628 125.298 325.803 125.954 326.154 126.414C326.505 126.874 327.007 127.104 327.658 127.104ZM333.284 121.499C333.845 120.811 334.574 120.467 335.472 120.467C337.035 120.467 337.823 121.349 337.837 123.112V128H336.572V123.105C336.568 122.572 336.445 122.178 336.203 121.923C335.966 121.668 335.595 121.54 335.089 121.54C334.679 121.54 334.319 121.649 334.009 121.868C333.699 122.087 333.457 122.374 333.284 122.729V128H332.02V117.5H333.284V121.499ZM347.77 128C347.697 127.854 347.637 127.594 347.592 127.221C347.004 127.831 346.302 128.137 345.486 128.137C344.757 128.137 344.158 127.932 343.688 127.521C343.224 127.107 342.991 126.583 342.991 125.949C342.991 125.179 343.283 124.582 343.866 124.158C344.454 123.73 345.279 123.516 346.341 123.516H347.571V122.935C347.571 122.493 347.439 122.142 347.175 121.882C346.91 121.618 346.521 121.485 346.006 121.485C345.555 121.485 345.176 121.599 344.871 121.827C344.566 122.055 344.413 122.331 344.413 122.654H343.142C343.142 122.285 343.271 121.93 343.531 121.588C343.796 121.242 344.151 120.968 344.598 120.768C345.049 120.567 345.543 120.467 346.081 120.467C346.933 120.467 347.601 120.681 348.084 121.109C348.567 121.533 348.818 122.119 348.836 122.866V126.271C348.836 126.95 348.923 127.49 349.096 127.891V128H347.77ZM345.671 127.036C346.067 127.036 346.443 126.934 346.799 126.729C347.154 126.523 347.412 126.257 347.571 125.929V124.411H346.58C345.031 124.411 344.256 124.865 344.256 125.771C344.256 126.168 344.388 126.478 344.652 126.701C344.917 126.924 345.256 127.036 345.671 127.036ZM355.665 128H354.4V117.5H355.665V128ZM357.36 124.233C357.36 123.509 357.502 122.857 357.784 122.278C358.071 121.7 358.468 121.253 358.974 120.938C359.484 120.624 360.065 120.467 360.717 120.467C361.724 120.467 362.537 120.815 363.157 121.513C363.782 122.21 364.094 123.137 364.094 124.295V124.384C364.094 125.104 363.955 125.751 363.677 126.325C363.403 126.895 363.009 127.339 362.494 127.658C361.984 127.977 361.396 128.137 360.73 128.137C359.728 128.137 358.914 127.788 358.29 127.091C357.67 126.394 357.36 125.471 357.36 124.322V124.233ZM358.632 124.384C358.632 125.204 358.821 125.863 359.199 126.359C359.582 126.856 360.092 127.104 360.73 127.104C361.373 127.104 361.883 126.854 362.262 126.353C362.64 125.847 362.829 125.14 362.829 124.233C362.829 123.422 362.635 122.766 362.248 122.265C361.865 121.759 361.355 121.506 360.717 121.506C360.092 121.506 359.589 121.754 359.206 122.251C358.823 122.748 358.632 123.459 358.632 124.384ZM367.396 118.812V120.604H368.776V121.581H367.396V126.168C367.396 126.464 367.457 126.688 367.58 126.838C367.703 126.984 367.913 127.057 368.209 127.057C368.355 127.057 368.555 127.029 368.811 126.975V128C368.478 128.091 368.154 128.137 367.84 128.137C367.275 128.137 366.849 127.966 366.562 127.624C366.274 127.282 366.131 126.797 366.131 126.168V121.581H364.784V120.604H366.131V118.812H367.396ZM66.0264 152.137C65.0238 152.137 64.208 151.809 63.5791 151.152C62.9502 150.492 62.6357 149.61 62.6357 148.507V148.274C62.6357 147.541 62.7747 146.887 63.0527 146.312C63.3353 145.734 63.7272 145.283 64.2285 144.959C64.7344 144.631 65.2812 144.467 65.8691 144.467C66.8307 144.467 67.5781 144.784 68.1113 145.417C68.6445 146.05 68.9111 146.957 68.9111 148.138V148.664H63.9004C63.9186 149.393 64.1305 149.983 64.5361 150.435C64.9463 150.881 65.4658 151.104 66.0947 151.104C66.5413 151.104 66.9196 151.013 67.2295 150.831C67.5394 150.649 67.8105 150.407 68.043 150.106L68.8154 150.708C68.1956 151.66 67.266 152.137 66.0264 152.137ZM65.8691 145.506C65.3587 145.506 64.9303 145.693 64.584 146.066C64.2376 146.436 64.0234 146.955 63.9414 147.625H67.6465V147.529C67.61 146.887 67.4368 146.39 67.127 146.039C66.8171 145.684 66.3978 145.506 65.8691 145.506ZM74.9473 152C74.8743 151.854 74.8151 151.594 74.7695 151.221C74.1816 151.831 73.4798 152.137 72.6641 152.137C71.9349 152.137 71.3356 151.932 70.8662 151.521C70.4014 151.107 70.1689 150.583 70.1689 149.949C70.1689 149.179 70.4606 148.582 71.0439 148.158C71.6318 147.73 72.4567 147.516 73.5186 147.516H74.749V146.935C74.749 146.493 74.6169 146.142 74.3525 145.882C74.0882 145.618 73.6986 145.485 73.1836 145.485C72.7324 145.485 72.3542 145.599 72.0488 145.827C71.7435 146.055 71.5908 146.331 71.5908 146.654H70.3193C70.3193 146.285 70.4492 145.93 70.709 145.588C70.9733 145.242 71.3288 144.968 71.7754 144.768C72.2266 144.567 72.721 144.467 73.2588 144.467C74.111 144.467 74.7786 144.681 75.2617 145.109C75.7448 145.533 75.9954 146.119 76.0137 146.866V150.271C76.0137 150.95 76.1003 151.49 76.2734 151.891V152H74.9473ZM72.8486 151.036C73.2451 151.036 73.6211 150.934 73.9766 150.729C74.332 150.523 74.5895 150.257 74.749 149.929V148.411H73.7578C72.2083 148.411 71.4336 148.865 71.4336 149.771C71.4336 150.168 71.5658 150.478 71.8301 150.701C72.0944 150.924 72.4339 151.036 72.8486 151.036ZM82.3027 150.038C82.3027 149.696 82.1729 149.432 81.9131 149.245C81.6579 149.054 81.209 148.89 80.5664 148.753C79.9284 148.616 79.4202 148.452 79.042 148.261C78.6683 148.069 78.3903 147.841 78.208 147.577C78.0303 147.313 77.9414 146.998 77.9414 146.634C77.9414 146.028 78.1966 145.515 78.707 145.096C79.222 144.676 79.8783 144.467 80.6758 144.467C81.5143 144.467 82.1934 144.683 82.7129 145.116C83.237 145.549 83.499 146.103 83.499 146.777H82.2275C82.2275 146.431 82.0794 146.132 81.7832 145.882C81.4915 145.631 81.1224 145.506 80.6758 145.506C80.2155 145.506 79.8555 145.606 79.5957 145.807C79.3359 146.007 79.2061 146.269 79.2061 146.593C79.2061 146.898 79.3268 147.128 79.5684 147.283C79.8099 147.438 80.2451 147.586 80.874 147.728C81.5075 147.869 82.0202 148.037 82.4121 148.233C82.804 148.429 83.0934 148.666 83.2803 148.944C83.4717 149.218 83.5674 149.553 83.5674 149.949C83.5674 150.61 83.3031 151.141 82.7744 151.542C82.2458 151.938 81.5599 152.137 80.7168 152.137C80.1243 152.137 79.6003 152.032 79.1445 151.822C78.6888 151.613 78.3311 151.321 78.0713 150.947C77.8161 150.569 77.6885 150.161 77.6885 149.724H78.9531C78.9759 150.147 79.1445 150.485 79.459 150.735C79.778 150.981 80.1973 151.104 80.7168 151.104C81.1953 151.104 81.5781 151.009 81.8652 150.817C82.1569 150.621 82.3027 150.362 82.3027 150.038ZM86.5889 152H85.3242V144.604H86.5889V152ZM85.2217 142.642C85.2217 142.437 85.2832 142.263 85.4062 142.122C85.5339 141.981 85.7207 141.91 85.9668 141.91C86.2129 141.91 86.3997 141.981 86.5273 142.122C86.6549 142.263 86.7188 142.437 86.7188 142.642C86.7188 142.847 86.6549 143.018 86.5273 143.154C86.3997 143.291 86.2129 143.359 85.9668 143.359C85.7207 143.359 85.5339 143.291 85.4062 143.154C85.2832 143.018 85.2217 142.847 85.2217 142.642ZM91.6885 152.137C90.6859 152.137 89.8701 151.809 89.2412 151.152C88.6123 150.492 88.2979 149.61 88.2979 148.507V148.274C88.2979 147.541 88.4368 146.887 88.7148 146.312C88.9974 145.734 89.3893 145.283 89.8906 144.959C90.3965 144.631 90.9434 144.467 91.5312 144.467C92.4928 144.467 93.2402 144.784 93.7734 145.417C94.3066 146.05 94.5732 146.957 94.5732 148.138V148.664H89.5625C89.5807 149.393 89.7926 149.983 90.1982 150.435C90.6084 150.881 91.1279 151.104 91.7568 151.104C92.2035 151.104 92.5817 151.013 92.8916 150.831C93.2015 150.649 93.4727 150.407 93.7051 150.106L94.4775 150.708C93.8577 151.66 92.9281 152.137 91.6885 152.137ZM91.5312 145.506C91.0208 145.506 90.5924 145.693 90.2461 146.066C89.8997 146.436 89.6855 146.955 89.6035 147.625H93.3086V147.529C93.2721 146.887 93.099 146.39 92.7891 146.039C92.4792 145.684 92.0599 145.506 91.5312 145.506ZM99.6182 145.738C99.4268 145.706 99.2194 145.69 98.9961 145.69C98.1667 145.69 97.6038 146.044 97.3076 146.75V152H96.043V144.604H97.2734L97.2939 145.458C97.7087 144.797 98.2965 144.467 99.0576 144.467C99.3037 144.467 99.4906 144.499 99.6182 144.562V145.738ZM99.9668 151.337C99.9668 151.118 100.031 150.936 100.158 150.79C100.29 150.644 100.486 150.571 100.746 150.571C101.006 150.571 101.202 150.644 101.334 150.79C101.471 150.936 101.539 151.118 101.539 151.337C101.539 151.547 101.471 151.722 101.334 151.863C101.202 152.005 101.006 152.075 100.746 152.075C100.486 152.075 100.29 152.005 100.158 151.863C100.031 151.722 99.9668 151.547 99.9668 151.337ZM112.928 147.399H108.614V150.927H113.625V152H107.302V142.047H113.557V143.127H108.614V146.326H112.928V147.399ZM117.323 150.284L119.155 144.604H120.447L117.795 152H116.831L114.151 144.604H115.443L117.323 150.284ZM124.638 152.137C123.635 152.137 122.819 151.809 122.19 151.152C121.562 150.492 121.247 149.61 121.247 148.507V148.274C121.247 147.541 121.386 146.887 121.664 146.312C121.947 145.734 122.339 145.283 122.84 144.959C123.346 144.631 123.893 144.467 124.48 144.467C125.442 144.467 126.189 144.784 126.723 145.417C127.256 146.05 127.522 146.957 127.522 148.138V148.664H122.512C122.53 149.393 122.742 149.983 123.147 150.435C123.558 150.881 124.077 151.104 124.706 151.104C125.153 151.104 125.531 151.013 125.841 150.831C126.151 150.649 126.422 150.407 126.654 150.106L127.427 150.708C126.807 151.66 125.877 152.137 124.638 152.137ZM124.48 145.506C123.97 145.506 123.542 145.693 123.195 146.066C122.849 146.436 122.635 146.955 122.553 147.625H126.258V147.529C126.221 146.887 126.048 146.39 125.738 146.039C125.428 145.684 125.009 145.506 124.48 145.506ZM130.188 144.604L130.229 145.533C130.795 144.822 131.533 144.467 132.444 144.467C134.007 144.467 134.796 145.349 134.81 147.112V152H133.545V147.105C133.54 146.572 133.417 146.178 133.176 145.923C132.939 145.668 132.567 145.54 132.062 145.54C131.651 145.54 131.291 145.649 130.981 145.868C130.672 146.087 130.43 146.374 130.257 146.729V152H128.992V144.604H130.188ZM141.563 152H140.299V144.604H141.563V152ZM140.196 142.642C140.196 142.437 140.258 142.263 140.381 142.122C140.508 141.981 140.695 141.91 140.941 141.91C141.188 141.91 141.374 141.981 141.502 142.122C141.63 142.263 141.693 142.437 141.693 142.642C141.693 142.847 141.63 143.018 141.502 143.154C141.374 143.291 141.188 143.359 140.941 143.359C140.695 143.359 140.508 143.291 140.381 143.154C140.258 143.018 140.196 142.847 140.196 142.642ZM144.216 152V145.581H143.047V144.604H144.216V143.845C144.216 143.052 144.428 142.439 144.852 142.006C145.275 141.573 145.875 141.356 146.649 141.356C146.941 141.356 147.23 141.395 147.518 141.473L147.449 142.498C147.235 142.457 147.007 142.437 146.766 142.437C146.355 142.437 146.039 142.557 145.815 142.799C145.592 143.036 145.48 143.378 145.48 143.824V144.604H147.06V145.581H145.48V152H144.216ZM154.354 150.147L156.076 144.604H157.43L154.456 153.142C153.996 154.372 153.264 154.987 152.262 154.987L152.022 154.967L151.551 154.878V153.853L151.893 153.88C152.321 153.88 152.654 153.793 152.891 153.62C153.132 153.447 153.33 153.13 153.485 152.67L153.766 151.918L151.127 144.604H152.508L154.354 150.147ZM158.12 148.233C158.12 147.509 158.261 146.857 158.544 146.278C158.831 145.7 159.228 145.253 159.733 144.938C160.244 144.624 160.825 144.467 161.477 144.467C162.484 144.467 163.297 144.815 163.917 145.513C164.541 146.21 164.854 147.137 164.854 148.295V148.384C164.854 149.104 164.715 149.751 164.437 150.325C164.163 150.895 163.769 151.339 163.254 151.658C162.743 151.977 162.156 152.137 161.49 152.137C160.488 152.137 159.674 151.788 159.05 151.091C158.43 150.394 158.12 149.471 158.12 148.322V148.233ZM159.392 148.384C159.392 149.204 159.581 149.863 159.959 150.359C160.342 150.856 160.852 151.104 161.49 151.104C162.133 151.104 162.643 150.854 163.021 150.353C163.4 149.847 163.589 149.14 163.589 148.233C163.589 147.422 163.395 146.766 163.008 146.265C162.625 145.759 162.115 145.506 161.477 145.506C160.852 145.506 160.349 145.754 159.966 146.251C159.583 146.748 159.392 147.459 159.392 148.384ZM171.006 151.269C170.514 151.847 169.791 152.137 168.839 152.137C168.05 152.137 167.449 151.909 167.034 151.453C166.624 150.993 166.417 150.314 166.412 149.416V144.604H167.677V149.382C167.677 150.503 168.132 151.063 169.044 151.063C170.01 151.063 170.653 150.703 170.972 149.983V144.604H172.236V152H171.033L171.006 151.269ZM174.937 142.259L174.793 144.774H173.911L173.918 141.5H174.937V142.259ZM180.187 145.738C179.995 145.706 179.788 145.69 179.564 145.69C178.735 145.69 178.172 146.044 177.876 146.75V152H176.611V144.604H177.842L177.862 145.458C178.277 144.797 178.865 144.467 179.626 144.467C179.872 144.467 180.059 144.499 180.187 144.562V145.738ZM184.288 152.137C183.285 152.137 182.47 151.809 181.841 151.152C181.212 150.492 180.897 149.61 180.897 148.507V148.274C180.897 147.541 181.036 146.887 181.314 146.312C181.597 145.734 181.989 145.283 182.49 144.959C182.996 144.631 183.543 144.467 184.131 144.467C185.092 144.467 185.84 144.784 186.373 145.417C186.906 146.05 187.173 146.957 187.173 148.138V148.664H182.162C182.18 149.393 182.392 149.983 182.798 150.435C183.208 150.881 183.728 151.104 184.356 151.104C184.803 151.104 185.181 151.013 185.491 150.831C185.801 150.649 186.072 150.407 186.305 150.106L187.077 150.708C186.457 151.66 185.528 152.137 184.288 152.137ZM184.131 145.506C183.62 145.506 183.192 145.693 182.846 146.066C182.499 146.436 182.285 146.955 182.203 147.625H185.908V147.529C185.872 146.887 185.699 146.39 185.389 146.039C185.079 145.684 184.66 145.506 184.131 145.506ZM193.312 144.604L193.353 145.533C193.918 144.822 194.656 144.467 195.567 144.467C197.131 144.467 197.919 145.349 197.933 147.112V152H196.668V147.105C196.663 146.572 196.54 146.178 196.299 145.923C196.062 145.668 195.69 145.54 195.185 145.54C194.774 145.54 194.414 145.649 194.104 145.868C193.795 146.087 193.553 146.374 193.38 146.729V152H192.115V144.604H193.312ZM199.505 148.233C199.505 147.509 199.646 146.857 199.929 146.278C200.216 145.7 200.612 145.253 201.118 144.938C201.629 144.624 202.21 144.467 202.861 144.467C203.868 144.467 204.682 144.815 205.302 145.513C205.926 146.21 206.238 147.137 206.238 148.295V148.384C206.238 149.104 206.099 149.751 205.821 150.325C205.548 150.895 205.154 151.339 204.639 151.658C204.128 151.977 203.54 152.137 202.875 152.137C201.872 152.137 201.059 151.788 200.435 151.091C199.815 150.394 199.505 149.471 199.505 148.322V148.233ZM200.776 148.384C200.776 149.204 200.965 149.863 201.344 150.359C201.727 150.856 202.237 151.104 202.875 151.104C203.518 151.104 204.028 150.854 204.406 150.353C204.785 149.847 204.974 149.14 204.974 148.233C204.974 147.422 204.78 146.766 204.393 146.265C204.01 145.759 203.499 145.506 202.861 145.506C202.237 145.506 201.733 145.754 201.351 146.251C200.968 146.748 200.776 147.459 200.776 148.384ZM209.54 142.812V144.604H210.921V145.581H209.54V150.168C209.54 150.464 209.602 150.688 209.725 150.838C209.848 150.984 210.057 151.057 210.354 151.057C210.499 151.057 210.7 151.029 210.955 150.975V152C210.622 152.091 210.299 152.137 209.984 152.137C209.419 152.137 208.993 151.966 208.706 151.624C208.419 151.282 208.275 150.797 208.275 150.168V145.581H206.929V144.604H208.275V142.812H209.54ZM217.251 152H215.986V141.5H217.251V152ZM218.946 148.233C218.946 147.509 219.088 146.857 219.37 146.278C219.657 145.7 220.054 145.253 220.56 144.938C221.07 144.624 221.651 144.467 222.303 144.467C223.31 144.467 224.123 144.815 224.743 145.513C225.368 146.21 225.68 147.137 225.68 148.295V148.384C225.68 149.104 225.541 149.751 225.263 150.325C224.989 150.895 224.595 151.339 224.08 151.658C223.57 151.977 222.982 152.137 222.316 152.137C221.314 152.137 220.5 151.788 219.876 151.091C219.256 150.394 218.946 149.471 218.946 148.322V148.233ZM220.218 148.384C220.218 149.204 220.407 149.863 220.785 150.359C221.168 150.856 221.678 151.104 222.316 151.104C222.959 151.104 223.469 150.854 223.848 150.353C224.226 149.847 224.415 149.14 224.415 148.233C224.415 147.422 224.221 146.766 223.834 146.265C223.451 145.759 222.941 145.506 222.303 145.506C221.678 145.506 221.175 145.754 220.792 146.251C220.409 146.748 220.218 147.459 220.218 148.384ZM226.931 148.233C226.931 147.509 227.072 146.857 227.354 146.278C227.642 145.7 228.038 145.253 228.544 144.938C229.054 144.624 229.635 144.467 230.287 144.467C231.294 144.467 232.108 144.815 232.728 145.513C233.352 146.21 233.664 147.137 233.664 148.295V148.384C233.664 149.104 233.525 149.751 233.247 150.325C232.974 150.895 232.579 151.339 232.064 151.658C231.554 151.977 230.966 152.137 230.301 152.137C229.298 152.137 228.485 151.788 227.86 151.091C227.241 150.394 226.931 149.471 226.931 148.322V148.233ZM228.202 148.384C228.202 149.204 228.391 149.863 228.77 150.359C229.152 150.856 229.663 151.104 230.301 151.104C230.943 151.104 231.454 150.854 231.832 150.353C232.21 149.847 232.399 149.14 232.399 148.233C232.399 147.422 232.206 146.766 231.818 146.265C231.436 145.759 230.925 145.506 230.287 145.506C229.663 145.506 229.159 145.754 228.776 146.251C228.394 146.748 228.202 147.459 228.202 148.384ZM237.314 148.575L236.521 149.402V152H235.257V141.5H236.521V147.851L237.198 147.037L239.502 144.604H241.04L238.162 147.693L241.375 152H239.892L237.314 148.575ZM243.72 152H242.455V144.604H243.72V152ZM242.353 142.642C242.353 142.437 242.414 142.263 242.537 142.122C242.665 141.981 242.852 141.91 243.098 141.91C243.344 141.91 243.531 141.981 243.658 142.122C243.786 142.263 243.85 142.437 243.85 142.642C243.85 142.847 243.786 143.018 243.658 143.154C243.531 143.291 243.344 143.359 243.098 143.359C242.852 143.359 242.665 143.291 242.537 143.154C242.414 143.018 242.353 142.847 242.353 142.642ZM246.946 144.604L246.987 145.533C247.552 144.822 248.291 144.467 249.202 144.467C250.765 144.467 251.554 145.349 251.567 147.112V152H250.303V147.105C250.298 146.572 250.175 146.178 249.934 145.923C249.697 145.668 249.325 145.54 248.819 145.54C248.409 145.54 248.049 145.649 247.739 145.868C247.429 146.087 247.188 146.374 247.015 146.729V152H245.75V144.604H246.946ZM253.174 148.24C253.174 147.087 253.44 146.171 253.974 145.492C254.507 144.809 255.213 144.467 256.093 144.467C256.995 144.467 257.699 144.786 258.205 145.424L258.267 144.604H259.422V151.822C259.422 152.779 259.137 153.534 258.567 154.085C258.002 154.636 257.241 154.912 256.284 154.912C255.751 154.912 255.229 154.798 254.719 154.57C254.208 154.342 253.819 154.03 253.55 153.634L254.206 152.875C254.748 153.545 255.411 153.88 256.195 153.88C256.811 153.88 257.289 153.707 257.631 153.36C257.977 153.014 258.15 152.526 258.15 151.897V151.262C257.645 151.845 256.954 152.137 256.079 152.137C255.213 152.137 254.511 151.788 253.974 151.091C253.44 150.394 253.174 149.443 253.174 148.24ZM254.445 148.384C254.445 149.218 254.616 149.874 254.958 150.353C255.3 150.826 255.778 151.063 256.394 151.063C257.191 151.063 257.777 150.701 258.15 149.977V146.6C257.763 145.893 257.182 145.54 256.407 145.54C255.792 145.54 255.311 145.779 254.965 146.258C254.618 146.736 254.445 147.445 254.445 148.384Z" fill="#445A74"/>
<g clip-path="url(#clip0)">
<path d="M382.069 186.176L382.069 180.001C382.069 179.164 382.748 178.486 383.585 178.486C386.573 178.486 388.198 175.421 388.423 169.374L383.585 169.374C382.748 169.374 382.069 168.695 382.069 167.858L382.069 154.821C382.069 153.984 382.748 153.306 383.585 153.306L396.484 153.306C397.322 153.306 398 153.985 398 154.821L398 167.858C398 170.757 397.708 173.417 397.133 175.766C396.542 178.174 395.637 180.28 394.441 182.025C393.21 183.818 391.671 185.225 389.866 186.205C388.049 187.191 385.935 187.691 383.585 187.691C382.748 187.691 382.069 187.013 382.069 186.176ZM362.516 178.486C361.679 178.486 361 179.165 361 180.001L361 186.175C361 187.013 361.679 187.691 362.516 187.691C364.866 187.691 366.979 187.191 368.796 186.205C370.602 185.225 372.142 183.818 373.372 182.025C374.568 180.28 375.474 178.174 376.064 175.765C376.639 173.416 376.931 170.755 376.931 167.858L376.931 154.821C376.931 153.984 376.252 153.306 375.415 153.306L362.516 153.306C361.679 153.306 361.001 153.985 361.001 154.821L361.001 167.858C361.001 168.695 361.679 169.374 362.516 169.374L367.285 169.374C367.063 175.421 365.462 178.486 362.516 178.486Z" fill="#92A7C1"/>
</g>
<path d="M53.9307 40.8244V46.9985C53.9307 47.8359 53.2519 48.5143 52.4146 48.5143C49.4271 48.5143 47.802 51.5785 47.5767 57.6262H52.4146C53.2519 57.6262 53.9307 58.3053 53.9307 59.1423V72.1787C53.9307 73.0156 53.2519 73.6942 52.4146 73.6942H39.5158C38.6781 73.6942 38 73.0151 38 72.1787V59.1423C38 56.2432 38.2919 53.5827 38.8673 51.234C39.4575 48.8258 40.3634 46.7201 41.5592 44.9753C42.7895 43.1822 44.3286 41.7752 46.1338 40.7949C47.9513 39.8088 50.0648 39.3086 52.4151 39.3086C53.2519 39.3086 53.9307 39.9871 53.9307 40.8244ZM73.4838 48.5144C74.3207 48.5144 75 47.8353 75 46.9986V40.8245C75 39.9872 74.3208 39.3087 73.4838 39.3087C71.1344 39.3087 69.0206 39.809 67.2038 40.795C65.3982 41.7753 63.8583 43.1823 62.6277 44.9754C61.4324 46.7202 60.5265 48.826 59.9362 51.2348C59.3611 53.5842 59.0692 56.2447 59.0692 59.1424V72.1788C59.0692 73.0157 59.7482 73.6943 60.5853 73.6943H73.4837C74.3206 73.6943 74.9993 73.0152 74.9993 72.1788V59.1423C74.9993 58.3054 74.3207 57.6262 73.4837 57.6262H68.7148C68.9366 51.5786 70.538 48.5144 73.4838 48.5144Z" fill="#92A7C1"/>
</g>
<defs>
<clipPath id="clip0">
<rect width="37" height="37" fill="white" transform="translate(398 189) rotate(180)"/>
</clipPath>
</defs>
</svg>
