<svg width="152" height="105" viewBox="0 0 152 105" fill="none" xmlns="http://www.w3.org/2000/svg">
<path fill-rule="evenodd" clip-rule="evenodd" d="M0.494246 61.8833L0.494141 61.873L0.494193 43.5527C0.494193 29.5367 3.38614 18.7268 9.32564 11.2789L9.32805 11.2758C15.3397 3.79677 23.9683 0.101562 35.0586 0.101562C46.1463 0.101562 54.7535 3.77223 60.721 11.2076C66.6559 18.5567 69.6218 29.0406 69.7598 42.5171L69.7599 42.5273L69.7598 60.8477C69.7598 74.7296 66.8896 85.5104 61.0029 93.0453C55.0804 100.626 46.4218 104.367 35.1954 104.367C24.1074 104.367 15.5001 100.696 9.53265 93.2607C3.59889 85.867 0.632248 75.3615 0.494246 61.8833ZM59.9415 11.834C54.1993 4.67904 45.905 1.10156 35.0586 1.10156C24.2123 1.10156 15.8952 4.70182 10.1075 11.9023C4.36529 19.1029 1.49419 29.653 1.49419 43.5527V61.873C1.63091 75.2259 4.57036 85.4798 10.3126 92.6348C16.0547 99.7897 24.349 103.367 35.1954 103.367C46.1784 103.367 54.5183 99.7214 60.2149 92.4297C65.9115 85.138 68.7598 74.6107 68.7598 60.8477V42.5273C68.6231 29.1745 65.6836 18.9434 59.9415 11.834ZM44.7285 23.286L44.7249 23.2799C42.6903 19.8336 39.5283 18.0977 35.0586 18.0977C30.7166 18.0977 27.6175 19.7511 25.5871 23.0237C23.544 26.3448 22.3866 31.7034 22.2501 39.2551V63.4453C22.2501 71.4986 23.3414 77.3298 25.4036 81.0715C27.442 84.6449 30.6454 86.4395 35.1954 86.4395C39.7145 86.4395 42.8425 84.7018 44.7842 81.2729C46.8 77.7129 47.913 72.1322 48.004 64.3965V40.75C48.004 32.548 46.8628 26.7863 44.7322 23.2921L44.7285 23.286ZM49.004 64.4023C48.9128 72.1953 47.7963 77.9831 45.6544 81.7656C43.5124 85.5482 40.0261 87.4395 35.1954 87.4395C30.3191 87.4395 26.7644 85.4798 24.5313 81.5605C22.3438 77.5957 21.2501 71.5573 21.2501 63.4453V39.2461C21.3868 31.6354 22.5489 26.0527 24.7364 22.498C26.9695 18.8978 30.4102 17.0977 35.0586 17.0977C39.8438 17.0977 43.3529 18.9889 45.586 22.7715C47.8646 26.5085 49.004 32.5013 49.004 40.75V64.4023ZM151.381 103H81.1583V88.0692L113.618 53.4733C113.619 53.4719 113.621 53.4704 113.622 53.4689C118.016 48.6665 121.221 44.5117 123.267 40.9988L123.271 40.9906C125.348 37.5004 126.344 34.2581 126.344 31.248C126.344 26.9935 125.271 23.7944 123.248 21.5226L123.242 21.516C121.24 19.2284 118.353 18.0293 114.424 18.0293C110.219 18.0293 106.981 19.4733 104.595 22.3201C102.229 25.1508 101 28.9369 101 33.7773V34.7773H79.1758V33.7773C79.1758 27.5507 80.6526 21.8409 83.6147 16.669L83.6181 16.6631C86.6308 11.4851 90.8699 7.43763 96.3128 4.52786C101.761 1.56954 107.92 0.101562 114.766 0.101562C125.171 0.101562 133.388 2.5994 139.279 7.72933C145.237 12.8779 148.168 20.128 148.168 29.334C148.168 34.4341 146.845 39.5994 144.234 44.8203C141.624 50.0415 137.181 56.0666 130.953 62.889L130.947 62.8961L109.915 85.0723H151.381V103ZM107.588 86.0723L130.215 62.2148C136.413 55.4245 140.788 49.4772 143.34 44.373C145.892 39.2689 147.168 34.2559 147.168 29.334C147.168 20.3561 144.32 13.4062 138.623 8.48438C132.972 3.5625 125.02 1.10156 114.766 1.10156C108.066 1.10156 102.074 2.53711 96.7872 5.4082C91.5007 8.23372 87.3991 12.153 84.4825 17.166C81.77 21.902 80.3389 27.1058 80.189 32.7773C80.1802 33.1091 80.1758 33.4424 80.1758 33.7773H100C100 28.7643 101.276 24.7311 103.828 21.6777C106.426 18.5788 109.958 17.0293 114.424 17.0293C118.571 17.0293 121.761 18.3053 123.994 20.8574C126.227 23.3639 127.344 26.8275 127.344 31.248C127.344 34.4837 126.273 37.9017 124.131 41.502C122.035 45.1022 118.776 49.3177 114.356 54.1484L82.1583 88.4648V102H150.381V86.0723H107.588Z" fill="#92A7C1"/>
</svg>
