<svg width="150" height="103" viewBox="0 0 150 103" fill="none" xmlns="http://www.w3.org/2000/svg">
<path d="M67.7598 59.7461C67.7598 73.5091 64.9115 84.0365 59.2148 91.3281C53.5182 98.6198 45.1784 102.266 34.1953 102.266C23.349 102.266 15.0547 98.6881 9.3125 91.5332C3.57031 84.3783 0.630859 74.1244 0.494141 60.7715V42.4512C0.494141 28.5514 3.36523 18.0013 9.10742 10.8008C14.8952 3.60026 23.2122 0 34.0586 0C44.9049 0 53.1992 3.57747 58.9414 10.7324C64.6836 17.8418 67.623 28.0729 67.7598 41.4258V59.7461ZM48.0039 39.6484C48.0039 31.3997 46.8646 25.4069 44.5859 21.6699C42.3529 17.8874 38.8438 15.9961 34.0586 15.9961C29.4102 15.9961 25.9694 17.7962 23.7363 21.3965C21.5488 24.9512 20.3867 30.5339 20.25 38.1445V62.3438C20.25 70.4557 21.3438 76.4941 23.5312 80.459C25.7643 84.3783 29.319 86.3379 34.1953 86.3379C39.026 86.3379 42.5124 84.4466 44.6543 80.6641C46.7962 76.8815 47.9128 71.0938 48.0039 63.3008V39.6484Z" fill="#06C78D"/>
<path d="M149.381 100.898H81.1582V87.3633L113.355 53.0469C117.776 48.2161 121.035 44.0007 123.131 40.4004C125.273 36.8001 126.344 33.3822 126.344 30.1465C126.344 25.7259 125.227 22.2624 122.994 19.7559C120.761 17.2038 117.571 15.9277 113.424 15.9277C108.958 15.9277 105.426 17.4772 102.828 20.5762C100.276 23.6296 99 27.6628 99 32.6758H79.1758C79.1758 26.6146 80.6113 21.0775 83.4824 16.0645C86.3991 11.0514 90.5006 7.13216 95.7871 4.30664C101.074 1.43555 107.066 0 113.766 0C124.02 0 131.972 2.46094 137.623 7.38281C143.32 12.3047 146.168 19.2546 146.168 28.2324C146.168 33.1543 144.892 38.1673 142.34 43.2715C139.788 48.3757 135.413 54.3229 129.215 61.1133L106.588 84.9707H149.381V100.898Z" fill="#06C78D"/>
</svg>
