<svg width="150" height="105" viewBox="0 0 150 105" fill="none" xmlns="http://www.w3.org/2000/svg">
<path fill-rule="evenodd" clip-rule="evenodd" d="M0.494246 61.8833L0.494141 61.873L0.494193 43.5527C0.494193 29.5367 3.38614 18.7268 9.32564 11.2789L9.32805 11.2758C15.3397 3.79677 23.9683 0.101562 35.0586 0.101562C46.1463 0.101562 54.7535 3.77223 60.721 11.2076C66.6559 18.5567 69.6218 29.0406 69.7598 42.5171L69.7599 42.5273L69.7598 60.8477C69.7598 74.7296 66.8896 85.5104 61.0029 93.0453C55.0804 100.626 46.4218 104.367 35.1954 104.367C24.1074 104.367 15.5001 100.696 9.53265 93.2607C3.59889 85.867 0.632248 75.3615 0.494246 61.8833ZM59.9415 11.834C54.1993 4.67904 45.905 1.10156 35.0586 1.10156C24.2123 1.10156 15.8952 4.70182 10.1075 11.9023C4.36529 19.1029 1.49419 29.653 1.49419 43.5527V61.873C1.63091 75.2259 4.57036 85.4798 10.3126 92.6348C16.0547 99.7897 24.349 103.367 35.1954 103.367C46.1784 103.367 54.5183 99.7214 60.2149 92.4297C65.9115 85.138 68.7598 74.6107 68.7598 60.8477V42.5273C68.6231 29.1745 65.6836 18.9434 59.9415 11.834ZM44.7285 23.286L44.7249 23.2799C42.6903 19.8336 39.5283 18.0977 35.0586 18.0977C30.7166 18.0977 27.6175 19.7511 25.5871 23.0237C23.544 26.3448 22.3866 31.7034 22.2501 39.2551V63.4453C22.2501 71.4986 23.3414 77.3298 25.4036 81.0715C27.442 84.6449 30.6454 86.4395 35.1954 86.4395C39.7145 86.4395 42.8425 84.7018 44.7842 81.2729C46.8 77.7129 47.913 72.1322 48.004 64.3965V40.75C48.004 32.548 46.8628 26.7863 44.7322 23.2921L44.7285 23.286ZM49.004 64.4023C48.9128 72.1953 47.7963 77.9831 45.6544 81.7656C43.5124 85.5482 40.0261 87.4395 35.1954 87.4395C30.3191 87.4395 26.7644 85.4798 24.5313 81.5605C22.3438 77.5957 21.2501 71.5573 21.2501 63.4453V39.2461C21.3868 31.6354 22.5489 26.0527 24.7364 22.498C26.9695 18.8978 30.4102 17.0977 35.0586 17.0977C39.8438 17.0977 43.3529 18.9889 45.586 22.7715C47.8646 26.5085 49.004 32.5013 49.004 40.75V64.4023ZM101.256 42.4844H112.783C117.645 42.4844 121.049 41.269 123.206 39.0307C125.408 36.7454 126.549 33.6853 126.549 29.7441C126.549 25.9466 125.414 23.1164 123.247 21.1132L123.24 21.1067C121.105 19.0944 118.096 18.0293 114.082 18.0293C110.496 18.0293 107.562 19.0182 105.215 20.9466L105.207 20.9534C102.895 22.8108 101.752 25.2107 101.752 28.2402V29.2402H79.9961V28.2402C79.9961 22.8552 81.4405 18.0093 84.3383 13.7339L84.3396 13.7319C87.277 9.42065 91.3434 6.07294 96.5033 3.68066L96.5064 3.67921C101.707 1.28964 107.411 0.101562 113.604 0.101562C124.285 0.101562 132.791 2.6688 138.995 7.9259C145.222 13.1556 148.305 20.3798 148.305 29.4707C148.305 34.2475 146.843 38.6444 143.944 42.6364C141.491 46.0137 138.39 48.7215 134.654 50.759C139.372 52.7928 143.018 55.639 145.532 59.3248C148.44 63.5216 149.877 68.4643 149.877 74.1094C149.877 83.2304 146.522 90.607 139.806 96.1405C133.157 101.657 124.389 104.367 113.604 104.367C103.486 104.367 95.1111 101.695 88.5618 96.2763L88.5591 96.2741C82.0287 90.8321 78.7657 83.6169 78.7657 74.7246V73.7246H100.522V74.7246C100.522 78.1753 101.788 80.9471 104.338 83.1216C106.962 85.3212 110.189 86.4395 114.082 86.4395C118.601 86.4395 121.999 85.258 124.407 83.0162C126.868 80.7218 128.121 77.6954 128.121 73.8359C128.121 69.0487 126.808 65.6346 124.347 63.3994C121.868 61.1476 118.052 59.9336 112.715 59.9336H101.256V42.4844ZM125.088 83.748C122.445 86.209 118.776 87.4395 114.082 87.4395C109.981 87.4395 106.517 86.2546 103.691 83.8848C100.912 81.515 99.5215 78.4616 99.5215 74.7246H79.7657C79.7657 75.0605 79.7705 75.3938 79.78 75.7246C80.0157 83.8756 83.1555 90.4694 89.1993 95.5059C95.5339 100.747 103.669 103.367 113.604 103.367C124.222 103.367 132.744 100.701 139.17 95.3691C145.641 90.0371 148.877 82.9505 148.877 74.1094C148.877 68.6406 147.487 63.901 144.707 59.8906C142.188 56.196 138.451 53.3523 133.495 51.3596C133.071 51.1892 132.639 51.0251 132.197 50.8672C132.621 50.6744 133.038 50.4738 133.446 50.2654C137.387 48.256 140.616 45.5172 143.135 42.0488C145.915 38.2207 147.305 34.028 147.305 29.4707C147.305 20.6296 144.32 13.7025 138.35 8.68945C132.38 3.63086 124.131 1.10156 113.604 1.10156C107.542 1.10156 101.982 2.26367 96.9239 4.58789C91.9109 6.91211 87.9916 10.1478 85.1661 14.2949C82.5657 18.1315 81.1815 22.4466 81.0135 27.2402C81.0019 27.5713 80.9961 27.9046 80.9961 28.2402H100.752C100.752 24.9134 102.028 22.2246 104.58 20.1738C107.132 18.0775 110.3 17.0293 114.082 17.0293C118.275 17.0293 121.556 18.1458 123.926 20.3789C126.341 22.612 127.549 25.7337 127.549 29.7441C127.549 33.8913 126.341 37.2181 123.926 39.7246C121.51 42.2311 117.796 43.4844 112.783 43.4844H102.256V58.9336H112.715C123.652 58.9336 129.121 63.901 129.121 73.8359C129.121 77.9375 127.777 81.2415 125.088 83.748Z" fill="#92A7C1"/>
</svg>
