<svg width="148" height="103" viewBox="0 0 148 103" fill="none" xmlns="http://www.w3.org/2000/svg">
<path d="M67.7598 59.7461C67.7598 73.5091 64.9115 84.0365 59.2148 91.3281C53.5182 98.6198 45.1784 102.266 34.1953 102.266C23.349 102.266 15.0547 98.6881 9.3125 91.5332C3.57031 84.3783 0.630859 74.1244 0.494141 60.7715V42.4512C0.494141 28.5514 3.36523 18.0013 9.10742 10.8008C14.8952 3.60026 23.2122 0 34.0586 0C44.9049 0 53.1992 3.57747 58.9414 10.7324C64.6836 17.8418 67.623 28.0729 67.7598 41.4258V59.7461ZM48.0039 39.6484C48.0039 31.3997 46.8646 25.4069 44.5859 21.6699C42.3529 17.8874 38.8438 15.9961 34.0586 15.9961C29.4102 15.9961 25.9694 17.7962 23.7363 21.3965C21.5488 24.9512 20.3867 30.5339 20.25 38.1445V62.3438C20.25 70.4557 21.3438 76.4941 23.5312 80.459C25.7643 84.3783 29.319 86.3379 34.1953 86.3379C39.026 86.3379 42.5124 84.4466 44.6543 80.6641C46.7962 76.8815 47.9128 71.0938 48.0039 63.3008V39.6484Z" fill="#06C78D"/>
<path d="M101.256 42.3828H111.783C116.796 42.3828 120.51 41.1296 122.926 38.623C125.341 36.1165 126.549 32.7897 126.549 28.6426C126.549 24.6322 125.341 21.5104 122.926 19.2773C120.556 17.0443 117.275 15.9277 113.082 15.9277C109.299 15.9277 106.132 16.9759 103.58 19.0723C101.028 21.123 99.752 23.8118 99.752 27.1387H79.9961C79.9961 21.9434 81.3861 17.2949 84.166 13.1934C86.9915 9.04622 90.9108 5.81055 95.9238 3.48633C100.982 1.16211 106.542 0 112.604 0C123.131 0 131.38 2.5293 137.35 7.58789C143.32 12.6009 146.305 19.528 146.305 28.3691C146.305 32.9264 144.915 37.1191 142.135 40.9473C139.355 44.7754 135.709 47.7148 131.197 49.7656C136.803 51.7708 140.973 54.7786 143.707 58.7891C146.487 62.7995 147.877 67.5391 147.877 73.0078C147.877 81.849 144.641 88.9355 138.17 94.2676C131.744 99.5996 123.222 102.266 112.604 102.266C102.669 102.266 94.5339 99.6452 88.1992 94.4043C81.9102 89.1634 78.7656 82.2363 78.7656 73.623H98.5215C98.5215 77.36 99.9115 80.4134 102.691 82.7832C105.517 85.153 108.98 86.3379 113.082 86.3379C117.776 86.3379 121.445 85.1074 124.088 82.6465C126.777 80.14 128.121 76.8359 128.121 72.7344C128.121 62.7995 122.652 57.832 111.715 57.832H101.256V42.3828Z" fill="#06C78D"/>
</svg>
