<svg width="132" height="105" viewBox="0 0 132 105" fill="none" xmlns="http://www.w3.org/2000/svg">
<path d="M68.7598 60.8477C68.7598 74.6107 65.9115 85.138 60.2148 92.4297C54.5182 99.7214 46.1784 103.367 35.1953 103.367C24.349 103.367 16.0547 99.7897 10.3125 92.6348C4.57031 85.4798 1.63086 75.2259 1.49414 61.873V43.5527C1.49414 29.653 4.36523 19.1029 10.1074 11.9023C15.8952 4.70182 24.2122 1.10156 35.0586 1.10156C45.9049 1.10156 54.1992 4.67904 59.9414 11.834C65.6836 18.9434 68.623 29.1745 68.7598 42.5273V60.8477ZM49.0039 40.75C49.0039 32.5013 47.8646 26.5085 45.5859 22.7715C43.3529 18.9889 39.8438 17.0977 35.0586 17.0977C30.4102 17.0977 26.9694 18.8978 24.7363 22.498C22.5488 26.0527 21.3867 31.6354 21.25 39.2461V63.4453C21.25 71.5573 22.3438 77.5957 24.5312 81.5605C26.7643 85.4798 30.319 87.4395 35.1953 87.4395C40.026 87.4395 43.5124 85.5482 45.6543 81.7656C47.7962 77.9831 48.9128 72.1953 49.0039 64.4023V40.75ZM130.146 102H110.391V25.8477L86.8066 33.1621V17.0977L128.027 2.33203H130.146V102Z" fill="white"/>
<path d="M1.49414 61.873H0.494088L0.494193 61.8833L1.49414 61.873ZM10.1074 11.9023L9.32799 11.2758L9.32559 11.2789L10.1074 11.9023ZM59.9414 11.834L59.1615 12.4599L59.1635 12.4623L59.9414 11.834ZM68.7598 42.5273H69.7598L69.7597 42.5171L68.7598 42.5273ZM45.5859 22.7715L44.7248 23.2799L44.7284 23.286L44.7321 23.2921L45.5859 22.7715ZM24.7363 22.498L23.8865 21.9709L23.8847 21.9739L24.7363 22.498ZM21.25 39.2461L20.2502 39.2281L20.25 39.2371V39.2461H21.25ZM24.5312 81.5605L23.6556 82.0437L23.6624 82.0556L24.5312 81.5605ZM45.6543 81.7656L44.7841 81.2729L45.6543 81.7656ZM49.0039 64.4023L50.0039 64.414V64.4023H49.0039ZM67.7598 60.8477C67.7598 74.4918 64.9334 84.7657 59.4268 91.814L61.0029 93.0453C66.8896 85.5104 69.7598 74.7296 69.7598 60.8477H67.7598ZM59.4268 91.814C53.9561 98.8165 45.935 102.367 35.1953 102.367V104.367C46.4218 104.367 55.0803 100.626 61.0029 93.0453L59.4268 91.814ZM35.1953 102.367C24.5905 102.367 16.6093 98.8831 11.0924 92.0089L9.5326 93.2607C15.5001 100.696 24.1074 104.367 35.1953 104.367V102.367ZM11.0924 92.0089C5.54178 85.0926 2.62952 75.0903 2.49409 61.8628L0.494193 61.8833C0.632195 75.3615 3.59884 85.867 9.5326 93.2607L11.0924 92.0089ZM2.49414 61.873V43.5527H0.494141V61.873H2.49414ZM2.49414 43.5527C2.49414 29.7693 5.34438 19.4789 10.8893 12.5258L9.32559 11.2789C3.38609 18.7268 0.494141 29.5367 0.494141 43.5527H2.49414ZM10.8868 12.5288C16.4507 5.60688 24.4563 2.10156 35.0586 2.10156V0.101562C23.9682 0.101562 15.3397 3.79677 9.328 11.2758L10.8868 12.5288ZM35.0586 2.10156C45.6634 2.10156 53.6446 5.58568 59.1615 12.4599L60.7213 11.2081C54.7538 3.77239 46.1465 0.101562 35.0586 0.101562V2.10156ZM59.1635 12.4623C64.7119 19.3318 67.6244 29.3095 67.7598 42.5376L69.7597 42.5171C69.6217 29.0394 66.6553 18.5549 60.7193 11.2056L59.1635 12.4623ZM67.7598 42.5273V60.8477H69.7598V42.5273H67.7598ZM50.0039 40.75C50.0039 32.4546 48.8664 26.2306 46.4397 22.2509L44.7321 23.2921C46.8628 26.7863 48.0039 32.548 48.0039 40.75H50.0039ZM46.4471 22.2631C44.0155 18.1443 40.1593 16.0977 35.0586 16.0977V18.0977C39.5282 18.0977 42.6902 19.8336 44.7248 23.2799L46.4471 22.2631ZM35.0586 16.0977C30.1044 16.0977 26.3222 18.044 23.8865 21.971L25.5861 23.0251C27.6166 19.7516 30.7159 18.0977 35.0586 18.0977V16.0977ZM23.8847 21.9739C21.5542 25.761 20.3878 31.5644 20.2502 39.2281L22.2498 39.2641C22.3856 31.7064 23.5435 26.3445 25.588 23.0221L23.8847 21.9739ZM20.25 39.2461V63.4453H22.25V39.2461H20.25ZM20.25 63.4453C20.25 71.6118 21.345 77.8555 23.6557 82.0436L25.4068 81.0775C23.3425 77.3359 22.25 71.5028 22.25 63.4453H20.25ZM23.6624 82.0556C26.0903 86.3168 29.9953 88.4395 35.1953 88.4395V86.4395C30.6427 86.4395 27.4384 84.6429 25.4001 81.0655L23.6624 82.0556ZM35.1953 88.4395C40.3376 88.4395 44.1823 86.3946 46.5245 82.2584L44.7841 81.2729C42.8425 84.7018 39.7144 86.4395 35.1953 86.4395V88.4395ZM46.5245 82.2584C48.7919 78.2541 49.9121 72.2613 50.0038 64.414L48.004 64.3906C47.9135 72.1294 46.8005 77.712 44.7841 81.2729L46.5245 82.2584ZM50.0039 64.4023V40.75H48.0039V64.4023H50.0039ZM130.146 102V103H131.146V102H130.146ZM110.391 102H109.391V103H110.391V102ZM110.391 25.8477H111.391V24.4905L110.094 24.8925L110.391 25.8477ZM86.8066 33.1621H85.8066V34.5192L87.1029 34.1172L86.8066 33.1621ZM86.8066 17.0977L86.4694 16.1562L85.8066 16.3936V17.0977H86.8066ZM128.027 2.33203V1.33203H127.854L127.69 1.39061L128.027 2.33203ZM130.146 2.33203H131.146V1.33203H130.146V2.33203ZM130.146 101H110.391V103H130.146V101ZM111.391 102V25.8477H109.391V102H111.391ZM110.094 24.8925L86.5104 32.207L87.1029 34.1172L110.687 26.8028L110.094 24.8925ZM87.8066 33.1621V17.0977H85.8066V33.1621H87.8066ZM87.1439 18.0391L128.365 3.27345L127.69 1.39061L86.4694 16.1562L87.1439 18.0391ZM128.027 3.33203H130.146V1.33203H128.027V3.33203ZM129.146 2.33203V102H131.146V2.33203H129.146Z" fill="#92A7C1"/>
</svg>
