<svg width="150" height="103" viewBox="0 0 150 103" fill="none" xmlns="http://www.w3.org/2000/svg">
<path d="M67.7598 59.8477C67.7598 73.6107 64.9115 84.138 59.2148 91.4297C53.5182 98.7214 45.1784 102.367 34.1953 102.367C23.349 102.367 15.0547 98.7897 9.3125 91.6348C3.57031 84.4798 0.630859 74.2259 0.494141 60.873V42.5527C0.494141 28.653 3.36523 18.1029 9.10742 10.9023C14.8952 3.70182 23.2122 0.101562 34.0586 0.101562C44.9049 0.101562 53.1992 3.67904 58.9414 10.834C64.6836 17.9434 67.623 28.1745 67.7598 41.5273V59.8477ZM48.0039 39.75C48.0039 31.5013 46.8646 25.5085 44.5859 21.7715C42.3529 17.9889 38.8438 16.0977 34.0586 16.0977C29.4102 16.0977 25.9694 17.8978 23.7363 21.498C21.5488 25.0527 20.3867 30.6354 20.25 38.2461V62.4453C20.25 70.5573 21.3438 76.5957 23.5312 80.5605C25.7643 84.4798 29.319 86.4395 34.1953 86.4395C39.026 86.4395 42.5124 84.5482 44.6543 80.7656C46.7962 76.9831 47.9128 71.1953 48.0039 63.4023V39.75ZM149.381 101H81.1582V87.4648L113.355 53.1484C117.776 48.3177 121.035 44.1022 123.131 40.502C125.273 36.9017 126.344 33.4837 126.344 30.248C126.344 25.8275 125.227 22.3639 122.994 19.8574C120.761 17.3053 117.571 16.0293 113.424 16.0293C108.958 16.0293 105.426 17.5788 102.828 20.6777C100.276 23.7311 99 27.7643 99 32.7773H79.1758C79.1758 26.7161 80.6113 21.179 83.4824 16.166C86.3991 11.153 90.5007 7.23372 95.7871 4.4082C101.074 1.53711 107.066 0.101562 113.766 0.101562C124.02 0.101562 131.972 2.5625 137.623 7.48438C143.32 12.4062 146.168 19.3561 146.168 28.334C146.168 33.2559 144.892 38.2689 142.34 43.373C139.788 48.4772 135.413 54.4245 129.215 61.2148L106.588 85.0723H149.381V101Z" fill="#06C78D"/>
</svg>
