<svg width="150" height="105" viewBox="0 0 150 105" fill="none" xmlns="http://www.w3.org/2000/svg">
<path d="M68.7598 60.8477C68.7598 74.6107 65.9115 85.138 60.2148 92.4297C54.5182 99.7214 46.1784 103.367 35.1953 103.367C24.349 103.367 16.0547 99.7897 10.3125 92.6348C4.57031 85.4798 1.63086 75.2259 1.49414 61.873V43.5527C1.49414 29.653 4.36523 19.1029 10.1074 11.9023C15.8952 4.70182 24.2122 1.10156 35.0586 1.10156C45.9049 1.10156 54.1992 4.67904 59.9414 11.834C65.6836 18.9434 68.623 29.1745 68.7598 42.5273V60.8477ZM49.0039 40.75C49.0039 32.5013 47.8646 26.5085 45.5859 22.7715C43.3529 18.9889 39.8438 17.0977 35.0586 17.0977C30.4102 17.0977 26.9694 18.8978 24.7363 22.498C22.5488 26.0527 21.3867 31.6354 21.25 39.2461V63.4453C21.25 71.5573 22.3438 77.5957 24.5312 81.5605C26.7643 85.4798 30.319 87.4395 35.1953 87.4395C40.026 87.4395 43.5124 85.5482 45.6543 81.7656C47.7962 77.9831 48.9128 72.1953 49.0039 64.4023V40.75ZM102.256 43.4844H112.783C117.796 43.4844 121.51 42.2311 123.926 39.7246C126.341 37.2181 127.549 33.8913 127.549 29.7441C127.549 25.7337 126.341 22.612 123.926 20.3789C121.556 18.1458 118.275 17.0293 114.082 17.0293C110.299 17.0293 107.132 18.0775 104.58 20.1738C102.028 22.2246 100.752 24.9134 100.752 28.2402H80.9961C80.9961 23.0449 82.3861 18.3965 85.166 14.2949C87.9915 10.1478 91.9108 6.91211 96.9238 4.58789C101.982 2.26367 107.542 1.10156 113.604 1.10156C124.131 1.10156 132.38 3.63086 138.35 8.68945C144.32 13.7025 147.305 20.6296 147.305 29.4707C147.305 34.028 145.915 38.2207 143.135 42.0488C140.355 45.877 136.709 48.8164 132.197 50.8672C137.803 52.8724 141.973 55.8802 144.707 59.8906C147.487 63.901 148.877 68.6406 148.877 74.1094C148.877 82.9505 145.641 90.0371 139.17 95.3691C132.744 100.701 124.222 103.367 113.604 103.367C103.669 103.367 95.5339 100.747 89.1992 95.5059C82.9102 90.265 79.7656 83.3379 79.7656 74.7246H99.5215C99.5215 78.4616 100.911 81.515 103.691 83.8848C106.517 86.2546 109.98 87.4395 114.082 87.4395C118.776 87.4395 122.445 86.209 125.088 83.748C127.777 81.2415 129.121 77.9375 129.121 73.8359C129.121 63.901 123.652 58.9336 112.715 58.9336H102.256V43.4844Z" fill="white"/>
<path d="M1.49414 61.873H0.494088L0.494193 61.8833L1.49414 61.873ZM10.1074 11.9023L9.32799 11.2758L9.32559 11.2789L10.1074 11.9023ZM59.9414 11.834L59.1615 12.4599L59.1635 12.4623L59.9414 11.834ZM68.7598 42.5273H69.7598L69.7597 42.5171L68.7598 42.5273ZM45.5859 22.7715L44.7248 23.2799L44.7284 23.286L44.7321 23.2921L45.5859 22.7715ZM24.7363 22.498L23.8865 21.9709L23.8847 21.9739L24.7363 22.498ZM21.25 39.2461L20.2502 39.2281L20.25 39.2371V39.2461H21.25ZM24.5312 81.5605L23.6556 82.0437L23.6624 82.0556L24.5312 81.5605ZM45.6543 81.7656L44.7841 81.2729L45.6543 81.7656ZM49.0039 64.4023L50.0039 64.414V64.4023H49.0039ZM67.7598 60.8477C67.7598 74.4918 64.9334 84.7657 59.4268 91.814L61.0029 93.0453C66.8896 85.5104 69.7598 74.7296 69.7598 60.8477H67.7598ZM59.4268 91.814C53.9561 98.8165 45.935 102.367 35.1953 102.367V104.367C46.4218 104.367 55.0803 100.626 61.0029 93.0453L59.4268 91.814ZM35.1953 102.367C24.5905 102.367 16.6093 98.8831 11.0924 92.0089L9.5326 93.2607C15.5001 100.696 24.1074 104.367 35.1953 104.367V102.367ZM11.0924 92.0089C5.54178 85.0926 2.62952 75.0903 2.49409 61.8628L0.494193 61.8833C0.632195 75.3615 3.59884 85.867 9.5326 93.2607L11.0924 92.0089ZM2.49414 61.873V43.5527H0.494141V61.873H2.49414ZM2.49414 43.5527C2.49414 29.7693 5.34438 19.4789 10.8893 12.5258L9.32559 11.2789C3.38609 18.7268 0.494141 29.5367 0.494141 43.5527H2.49414ZM10.8868 12.5288C16.4507 5.60688 24.4563 2.10156 35.0586 2.10156V0.101562C23.9682 0.101562 15.3397 3.79677 9.328 11.2758L10.8868 12.5288ZM35.0586 2.10156C45.6634 2.10156 53.6446 5.58568 59.1615 12.4599L60.7213 11.2081C54.7538 3.77239 46.1465 0.101562 35.0586 0.101562V2.10156ZM59.1635 12.4623C64.7119 19.3318 67.6244 29.3095 67.7598 42.5376L69.7597 42.5171C69.6217 29.0394 66.6553 18.5549 60.7193 11.2056L59.1635 12.4623ZM67.7598 42.5273V60.8477H69.7598V42.5273H67.7598ZM50.0039 40.75C50.0039 32.4546 48.8664 26.2306 46.4397 22.2509L44.7321 23.2921C46.8628 26.7863 48.0039 32.548 48.0039 40.75H50.0039ZM46.4471 22.2631C44.0155 18.1443 40.1593 16.0977 35.0586 16.0977V18.0977C39.5282 18.0977 42.6902 19.8336 44.7248 23.2799L46.4471 22.2631ZM35.0586 16.0977C30.1044 16.0977 26.3222 18.044 23.8865 21.971L25.5861 23.0251C27.6166 19.7516 30.7159 18.0977 35.0586 18.0977V16.0977ZM23.8847 21.9739C21.5542 25.761 20.3878 31.5644 20.2502 39.2281L22.2498 39.2641C22.3856 31.7064 23.5435 26.3445 25.588 23.0221L23.8847 21.9739ZM20.25 39.2461V63.4453H22.25V39.2461H20.25ZM20.25 63.4453C20.25 71.6118 21.345 77.8555 23.6557 82.0436L25.4068 81.0775C23.3425 77.3359 22.25 71.5028 22.25 63.4453H20.25ZM23.6624 82.0556C26.0903 86.3168 29.9953 88.4395 35.1953 88.4395V86.4395C30.6427 86.4395 27.4384 84.6429 25.4001 81.0655L23.6624 82.0556ZM35.1953 88.4395C40.3376 88.4395 44.1823 86.3946 46.5245 82.2584L44.7841 81.2729C42.8425 84.7018 39.7144 86.4395 35.1953 86.4395V88.4395ZM46.5245 82.2584C48.7919 78.2541 49.9121 72.2613 50.0038 64.414L48.004 64.3906C47.9135 72.1294 46.8005 77.712 44.7841 81.2729L46.5245 82.2584ZM50.0039 64.4023V40.75H48.0039V64.4023H50.0039ZM102.256 43.4844V42.4844H101.256V43.4844H102.256ZM123.926 39.7246L123.206 39.0307L123.926 39.7246ZM123.926 20.3789L123.24 21.1067L123.247 21.1132L123.926 20.3789ZM104.58 20.1738L105.207 20.9534L105.215 20.9466L104.58 20.1738ZM100.752 28.2402V29.2402H101.752V28.2402H100.752ZM80.9961 28.2402H79.9961V29.2402H80.9961V28.2402ZM85.166 14.2949L84.3396 13.7319L84.3382 13.7339L85.166 14.2949ZM96.9238 4.58789L96.5063 3.67921L96.5032 3.68066L96.9238 4.58789ZM138.35 8.68945L137.703 9.4524L137.707 9.45527L138.35 8.68945ZM143.135 42.0488L142.326 41.4612L143.135 42.0488ZM132.197 50.8672L131.783 49.9568L129.537 50.9778L131.86 51.8088L132.197 50.8672ZM144.707 59.8906L143.881 60.454L143.885 60.4603L144.707 59.8906ZM139.17 95.3691L138.534 94.5974L138.531 94.5996L139.17 95.3691ZM89.1992 95.5059L88.559 96.2741L88.5618 96.2763L89.1992 95.5059ZM79.7656 74.7246V73.7246H78.7656V74.7246H79.7656ZM99.5215 74.7246H100.521V73.7246H99.5215V74.7246ZM103.691 83.8848L103.043 84.6458L103.049 84.651L103.691 83.8848ZM125.088 83.748L125.769 84.4799L125.77 84.4795L125.088 83.748ZM102.256 58.9336H101.256V59.9336H102.256V58.9336ZM102.256 44.4844H112.783V42.4844H102.256V44.4844ZM112.783 44.4844C117.947 44.4844 121.972 43.1932 124.646 40.4185L123.206 39.0307C121.049 41.269 117.645 42.4844 112.783 42.4844V44.4844ZM124.646 40.4185C127.274 37.6908 128.549 34.0972 128.549 29.7441H126.549C126.549 33.6853 125.408 36.7454 123.206 39.0307L124.646 40.4185ZM128.549 29.7441C128.549 25.5208 127.269 22.1075 124.605 19.6446L123.247 21.1132C125.414 23.1164 126.549 25.9466 126.549 29.7441H128.549ZM124.612 19.6511C122.007 17.1973 118.454 16.0293 114.082 16.0293V18.0293C118.096 18.0293 121.104 19.0944 123.24 21.1067L124.612 19.6511ZM114.082 16.0293C110.103 16.0293 106.702 17.1367 103.945 19.4011L105.215 20.9466C107.562 19.0182 110.495 18.0293 114.082 18.0293V16.0293ZM103.954 19.3943C101.161 21.6385 99.752 24.6161 99.752 28.2402H101.752C101.752 25.2107 102.895 22.8108 105.206 20.9533L103.954 19.3943ZM100.752 27.2402H80.9961V29.2402H100.752V27.2402ZM81.9961 28.2402C81.9961 23.2347 83.3317 18.7837 85.9938 14.856L84.3382 13.7339C81.4404 18.0093 79.9961 22.8552 79.9961 28.2402H81.9961ZM85.9924 14.858C88.7062 10.8749 92.4782 7.75128 97.3445 5.49512L96.5032 3.68066C91.3434 6.07294 87.2769 9.42065 84.3396 13.7319L85.9924 14.858ZM97.3413 5.49657C102.258 3.2377 107.673 2.10156 113.604 2.10156V0.101562C107.411 0.101562 101.707 1.28964 96.5063 3.67921L97.3413 5.49657ZM113.604 2.10156C123.976 2.10156 131.968 4.59272 137.703 9.4524L138.996 7.92651C132.791 2.669 124.285 0.101562 113.604 0.101562V2.10156ZM137.707 9.45527C143.418 14.2515 146.305 20.8806 146.305 29.4707H148.305C148.305 20.3785 145.221 13.1535 138.993 7.92363L137.707 9.45527ZM146.305 29.4707C146.305 33.8085 144.987 37.797 142.326 41.4612L143.944 42.6364C146.843 38.6444 148.305 34.2475 148.305 29.4707H146.305ZM142.326 41.4612C139.652 45.1426 136.145 47.9741 131.783 49.9568L132.611 51.7776C137.272 49.6587 141.057 46.6113 143.944 42.6364L142.326 41.4612ZM131.86 51.8088C137.313 53.7592 141.29 56.6545 143.881 60.454L145.533 59.3273C142.655 55.1059 138.293 51.9856 132.534 49.9256L131.86 51.8088ZM143.885 60.4603C146.535 64.2836 147.877 68.8187 147.877 74.1094H149.877C149.877 68.4626 148.439 63.5185 145.529 59.3209L143.885 60.4603ZM147.877 74.1094C147.877 82.6704 144.761 89.4669 138.534 94.5974L139.806 96.1409C146.522 90.6074 149.877 83.2306 149.877 74.1094H147.877ZM138.531 94.5996C132.329 99.746 124.054 102.367 113.604 102.367V104.367C124.39 104.367 133.159 101.656 139.808 96.1387L138.531 94.5996ZM113.604 102.367C103.851 102.367 95.9567 99.7987 89.8367 94.7354L88.5618 96.2763C95.111 101.695 103.486 104.367 113.604 104.367V102.367ZM89.8394 94.7376C83.7916 89.6978 80.7656 83.0589 80.7656 74.7246H78.7656C78.7656 83.6169 82.0287 90.8321 88.559 96.2741L89.8394 94.7376ZM79.7656 75.7246H99.5215V73.7246H79.7656V75.7246ZM98.5215 74.7246C98.5215 78.7467 100.034 82.081 103.043 84.6458L104.34 83.1237C101.789 80.9489 100.521 78.1765 100.521 74.7246H98.5215ZM103.049 84.651C106.075 87.1889 109.774 88.4395 114.082 88.4395V86.4395C110.187 86.4395 106.959 85.3202 104.334 83.1186L103.049 84.651ZM114.082 88.4395C118.951 88.4395 122.891 87.1599 125.769 84.4799L124.406 83.0162C121.999 85.258 118.601 86.4395 114.082 86.4395V88.4395ZM125.77 84.4795C128.686 81.7609 130.121 78.1793 130.121 73.8359H128.121C128.121 77.6957 126.867 80.7222 124.406 83.0166L125.77 84.4795ZM130.121 73.8359C130.121 68.6882 128.7 64.6512 125.692 61.919C122.702 59.2033 118.315 57.9336 112.715 57.9336V59.9336C118.052 59.9336 121.868 61.1476 124.347 63.3994C126.808 65.6346 128.121 69.0487 128.121 73.8359H130.121ZM112.715 57.9336H102.256V59.9336H112.715V57.9336ZM103.256 58.9336V43.4844H101.256V58.9336H103.256Z" fill="#92A7C1"/>
</svg>
