<svg width="92" height="92" viewBox="0 0 92 92" fill="none" xmlns="http://www.w3.org/2000/svg">
<g filter="url(#filter0_d)">
<rect x="4" width="84" height="84" rx="12" fill="#8C8C8C"/>
<rect x="4" width="84" height="84" rx="12" fill="white"/>
<rect x="5" y="1" width="82" height="82" rx="11" stroke="white" stroke-width="2"/>
</g>
<g clip-path="url(#clip0)">
<path d="M71.2383 61.5895H67.9293V33.8564C67.9293 32.0897 66.492 30.6523 64.7252 30.6523H54.9559C54.5352 30.6523 54.1942 30.9934 54.1942 31.4141C54.1942 31.8347 54.5352 32.1758 54.9559 32.1758H64.7252C65.6519 32.1758 66.4058 32.9298 66.4058 33.8564V61.5896H63.7986C63.8379 61.302 63.8585 61.0125 63.8585 60.7231C63.8585 57.1607 60.9603 54.2624 57.3979 54.2624C56.9189 54.2624 56.4406 54.3171 55.9692 54.4255C55.1473 52.8419 53.5102 51.8199 51.699 51.8199C51.1081 51.8199 50.5342 51.9277 49.9938 52.137C49.7719 50.1297 48.0655 48.5633 46 48.5633C43.9345 48.5633 42.2281 50.1297 42.0062 52.137C41.4658 51.9277 40.8919 51.8199 40.301 51.8199C38.4898 51.8199 36.8526 52.8419 36.0308 54.4255C35.5593 54.317 35.0811 54.2624 34.6021 54.2624C31.0396 54.2624 28.1415 57.1607 28.1415 60.7231C28.1415 61.0126 28.1621 61.302 28.2014 61.5896H25.5942V33.8564C25.5942 32.9297 26.3481 32.1758 27.2748 32.1758H37.0444C37.4651 32.1758 37.8061 31.8347 37.8061 31.4141C37.8061 30.9934 37.4651 30.6523 37.0444 30.6523H27.2748C25.508 30.6523 24.0707 32.0898 24.0707 33.8564V61.5896H20.7617C20.341 61.5896 20 61.9307 20 62.3513V63.9796C20 65.2975 21.0722 66.3695 22.39 66.3695H69.61C70.9279 66.3695 72 65.2974 72 63.9796V62.3513C72 61.9305 71.659 61.5895 71.2383 61.5895ZM70.4766 63.9796C70.4766 64.4574 70.0878 64.8461 69.61 64.8461H22.39C21.9121 64.8461 21.5234 64.4573 21.5234 63.9796V63.113H31.3452C31.7659 63.113 32.107 62.772 32.107 62.3513C32.107 61.9307 31.7659 61.5896 31.3452 61.5896H29.7428C29.6911 61.3025 29.6648 61.0126 29.6648 60.7231C29.6648 58.0007 31.8797 55.7858 34.602 55.7858C35.1443 55.7858 35.6872 55.8786 36.2159 56.0617C36.4073 56.128 36.6171 56.1153 36.7992 56.0265C36.9813 55.9377 37.1204 55.78 37.186 55.5884C37.6452 54.2456 38.897 53.3434 40.3011 53.3434C41.0711 53.3434 41.8023 53.6159 42.416 54.1316C42.675 54.3492 43.0466 54.3699 43.3282 54.1823C43.6098 53.9948 43.7339 53.644 43.633 53.3211C43.5458 53.0422 43.5052 52.8073 43.5052 52.5817C43.5052 51.2061 44.6244 50.0869 46 50.0869C47.3756 50.0869 48.4948 51.2062 48.4948 52.5817C48.4948 52.8073 48.4542 53.0422 48.367 53.3211C48.2661 53.6441 48.3903 53.9949 48.6718 54.1823C48.9534 54.3698 49.325 54.3492 49.584 54.1316C50.1977 53.616 50.929 53.3434 51.6989 53.3434C53.103 53.3434 54.3548 54.2456 54.814 55.5884C54.8796 55.78 55.0187 55.9377 55.2008 56.0265C55.3829 56.1154 55.5928 56.1281 55.7841 56.0617C56.3128 55.8786 56.8556 55.7858 57.398 55.7858C60.1204 55.7858 62.3352 58.0007 62.3352 60.7231C62.3352 61.0126 62.3088 61.3025 62.2572 61.5896H34.6024C34.1817 61.5896 33.8406 61.9307 33.8406 62.3513C33.8406 62.772 34.1817 63.113 34.6024 63.113H70.4766V63.9796Z" fill="#8C8C8C"/>
<path d="M36.2114 40.0156C35.7325 40.5903 35.4688 41.3188 35.4688 42.0669V44.4392C35.4688 44.7099 35.6126 44.9604 35.8464 45.097C35.965 45.1663 36.0977 45.2009 36.2305 45.2009C36.3596 45.2009 36.4886 45.1682 36.6048 45.1026L42.0293 42.0418C42.236 42.4192 42.4551 42.7905 42.6866 43.155L42.0047 45.8827C41.9477 46.1103 41.9989 46.3513 42.1432 46.5362C42.2876 46.7212 42.5091 46.8292 42.7437 46.8292H49.2568C49.4914 46.8292 49.7128 46.7212 49.8572 46.5362C50.0015 46.3514 50.0527 46.1103 49.9957 45.8827L49.3139 43.155C49.5453 42.7905 49.7645 42.4193 49.9712 42.0418L55.3956 45.1026C55.5119 45.1682 55.6409 45.2009 55.77 45.2009C55.9027 45.2009 56.0355 45.1662 56.1541 45.097C56.3879 44.9605 56.5317 44.71 56.5317 44.4392V42.0669C56.5317 41.3188 56.2679 40.5903 55.7891 40.0156L52.173 35.6778C52.3635 34.5463 52.461 33.3926 52.461 32.2271C52.461 29.4493 51.9232 26.7642 50.8626 24.2465C49.8396 21.8184 48.3835 19.6642 46.5347 17.8439C46.2382 17.552 45.7624 17.552 45.466 17.8439C43.6171 19.6641 42.161 21.8183 41.1381 24.2465C40.0775 26.7643 39.5397 29.4493 39.5397 32.2271C39.5397 33.3908 39.6369 34.5427 39.8267 35.6725L36.2114 40.0156ZM36.9922 43.1347V42.0669C36.9922 41.6744 37.1305 41.2924 37.3817 40.9909L40.2368 37.5648C40.5221 38.632 40.8929 39.6728 41.3475 40.6773L36.9922 43.1347ZM43.7192 45.3057L44.1524 43.5726H47.8478L48.2811 45.3057H43.7192ZM54.6185 40.9909C54.8696 41.2924 55.008 41.6744 55.008 42.0669V43.1347L50.6527 40.6772C51.1071 39.6727 51.4781 38.632 51.7633 37.5647L54.6185 40.9909ZM46.0001 19.4793C47.2793 20.8543 48.3343 22.431 49.1361 24.1382H42.864C43.6659 22.431 44.7209 20.8543 46.0001 19.4793ZM42.2293 25.6615H49.7708C50.5324 27.7379 50.9372 29.9641 50.9372 32.227C50.9372 35.7297 49.9949 39.1163 48.208 42.0491H43.792C42.0051 39.1163 41.0628 35.7297 41.0628 32.227C41.0628 29.9641 41.4677 27.738 42.2293 25.6615Z" fill="#8C8C8C"/>
<path d="M49.2031 31.415C49.2031 29.6482 47.7658 28.2109 45.999 28.2109C44.2322 28.2109 42.7949 29.6483 42.7949 31.415C42.7949 33.1817 44.2322 34.6191 45.999 34.6191C47.7658 34.6191 49.2031 33.1818 49.2031 31.415ZM44.3184 31.415C44.3184 30.4883 45.0723 29.7344 45.999 29.7344C46.9258 29.7344 47.6797 30.4884 47.6797 31.415C47.6797 32.3417 46.9258 33.0957 45.999 33.0957C45.0723 33.0957 44.3184 32.3418 44.3184 31.415Z" fill="#8C8C8C"/>
</g>
<defs>
<filter id="filter0_d" x="0" y="0" width="92" height="92" filterUnits="userSpaceOnUse" color-interpolation-filters="sRGB">
<feFlood flood-opacity="0" result="BackgroundImageFix"/>
<feColorMatrix in="SourceAlpha" type="matrix" values="0 0 0 0 0 0 0 0 0 0 0 0 0 0 0 0 0 0 127 0"/>
<feOffset dy="4"/>
<feGaussianBlur stdDeviation="2"/>
<feColorMatrix type="matrix" values="0 0 0 0 0 0 0 0 0 0 0 0 0 0 0 0 0 0 0.05 0"/>
<feBlend mode="normal" in2="BackgroundImageFix" result="effect1_dropShadow"/>
<feBlend mode="normal" in="SourceGraphic" in2="effect1_dropShadow" result="shape"/>
</filter>
<clipPath id="clip0">
<rect width="52" height="52" fill="white" transform="translate(20 16)"/>
</clipPath>
</defs>
</svg>
