<svg width="92" height="92" viewBox="0 0 92 92" fill="none" xmlns="http://www.w3.org/2000/svg">
<g filter="url(#filter0_d)">
<rect x="4" width="84" height="84" rx="12" fill="#8C8C8C"/>
<rect x="4" width="84" height="84" rx="12" fill="white"/>
<rect x="5" y="1" width="82" height="82" rx="11" stroke="white" stroke-width="2"/>
</g>
<g clip-path="url(#clip0)">
<path d="M38.1666 53.3984C35.5352 53.3984 33.4023 55.5313 33.4023 58.1626C33.4023 60.7936 35.5352 62.9265 38.1666 62.9265C40.7975 62.9265 42.9304 60.7936 42.9304 58.1626C42.9277 55.5327 40.7965 53.4012 38.1666 53.3984ZM38.1666 61.175C36.5027 61.175 35.1538 59.8262 35.1538 58.1626C35.1538 56.4987 36.5027 55.1499 38.1666 55.1499C39.8301 55.1499 41.1789 56.4987 41.1789 58.1626C41.1789 59.8262 39.8301 61.175 38.1666 61.175Z" fill="#8C8C8C"/>
<path d="M64.133 33.4069H33.2106L32.5802 29.8776C32.1916 27.7051 30.4887 26.0056 28.3154 25.6214L26.0296 25.2188C25.5531 25.1339 25.0985 25.4517 25.0136 25.9279C24.9291 26.4044 25.2466 26.8591 25.7231 26.9439L28.0175 27.3465C29.4652 27.6031 30.5985 28.7364 30.855 30.1841L33.955 47.6725C34.321 49.765 36.1392 51.2914 38.2636 51.2894H56.654C58.5861 51.2952 60.2924 50.0305 60.849 48.1805L64.965 34.5365C65.0412 34.2703 64.993 33.9837 64.8336 33.7572C64.667 33.5379 64.408 33.4086 64.133 33.4069ZM59.1762 47.6636C58.8458 48.7747 57.8219 49.5348 56.6629 49.529H38.2725C36.9968 49.5324 35.9049 48.6146 35.689 47.3571L33.526 35.1495H62.9593L59.1762 47.6636Z" fill="#8C8C8C"/>
<path d="M56.5572 53.3984C53.9259 53.3984 51.793 55.5313 51.793 58.1626C51.793 60.7936 53.9259 62.9265 56.5572 62.9265C59.1881 62.9265 61.321 60.7936 61.321 58.1626C61.3183 55.5327 59.1871 53.4012 56.5572 53.3984ZM56.5572 61.175C54.8933 61.175 53.5444 59.8262 53.5444 58.1626C53.5444 56.4987 54.8933 55.1499 56.5572 55.1499C58.2207 55.1499 59.5696 56.4987 59.5696 58.1626C59.5696 59.8262 58.2207 61.175 56.5572 61.175Z" fill="#8C8C8C"/>
</g>
<defs>
<filter id="filter0_d" x="0" y="0" width="92" height="92" filterUnits="userSpaceOnUse" color-interpolation-filters="sRGB">
<feFlood flood-opacity="0" result="BackgroundImageFix"/>
<feColorMatrix in="SourceAlpha" type="matrix" values="0 0 0 0 0 0 0 0 0 0 0 0 0 0 0 0 0 0 127 0"/>
<feOffset dy="4"/>
<feGaussianBlur stdDeviation="2"/>
<feColorMatrix type="matrix" values="0 0 0 0 0 0 0 0 0 0 0 0 0 0 0 0 0 0 0.05 0"/>
<feBlend mode="normal" in2="BackgroundImageFix" result="effect1_dropShadow"/>
<feBlend mode="normal" in="SourceGraphic" in2="effect1_dropShadow" result="shape"/>
</filter>
<clipPath id="clip0">
<rect width="40" height="40" fill="white" transform="translate(25 24)"/>
</clipPath>
</defs>
</svg>
