<svg width="92" height="92" viewBox="0 0 92 92" fill="none" xmlns="http://www.w3.org/2000/svg">
<g filter="url(#filter0_d)">
<rect x="4" width="84" height="84" rx="12" fill="#2C7DFA"/>
<rect x="4" width="84" height="84" rx="12" fill="white" fill-opacity="0.9"/>
<rect x="5" y="1" width="82" height="82" rx="11" stroke="white" stroke-width="2"/>
</g>
<g filter="url(#filter1_d)">
<path d="M67.7368 27.4378L59.561 19.2632C59.3925 19.0947 59.164 19 58.9258 19H32.2422C30.756 19 29.5469 20.2091 29.5469 21.6953V23.4081C25.1333 25.1394 22 29.4412 22 34.4613C22 34.9574 22.4023 35.3597 22.8984 35.3597H33.8676C34.3637 35.3597 34.766 34.9574 34.766 34.4613V23.4922C34.766 22.9961 34.3637 22.5938 33.8676 22.5938C33.0016 22.5938 32.1575 22.6878 31.3438 22.8648V21.6953C31.3438 21.1999 31.7468 20.7969 32.2422 20.7969H58.0273V26.2773C58.0273 27.7635 59.2365 28.9727 60.7227 28.9727H66.2031V62.3047C66.2031 62.8001 65.8001 63.2031 65.3047 63.2031H32.2422C31.7468 63.2031 31.3438 62.8001 31.3438 62.3047V54.608C31.3438 54.1119 30.9414 53.7096 30.4453 53.7096C29.9492 53.7096 29.5469 54.1119 29.5469 54.608V62.3047C29.5469 63.7909 30.756 65 32.2422 65H65.3047C66.7909 65 68 63.7909 68 62.3047V28.0731C68 27.8348 67.9053 27.6062 67.7368 27.4378ZM32.969 24.4304V33.5629H23.8366C24.2661 28.725 28.1312 24.86 32.969 24.4304ZM60.7227 27.1758C60.2273 27.1758 59.8242 26.7727 59.8242 26.2773V22.0673L64.9335 27.1758H60.7227Z" fill="#2C7DFA"/>
<path d="M31.0804 50.7086C30.9134 50.5414 30.6816 50.4453 30.4453 50.4453C30.209 50.4453 29.9772 50.5414 29.8101 50.7086C29.643 50.8757 29.5469 51.1075 29.5469 51.3438C29.5469 51.58 29.6429 51.8118 29.8101 51.9789C29.9772 52.1461 30.209 52.2422 30.4453 52.2422C30.6816 52.2422 30.9134 52.1461 31.0804 51.9789C31.2476 51.8118 31.3438 51.58 31.3438 51.3438C31.3438 51.1075 31.2476 50.8757 31.0804 50.7086Z" fill="#2C7DFA"/>
<path d="M37.0862 25.8125C36.5901 25.8125 36.1878 26.2148 36.1878 26.7109V36.7815H26.1172C25.6211 36.7815 25.2188 37.1838 25.2188 37.68C25.2188 44.2237 30.5424 49.5475 37.0862 49.5475C43.63 49.5475 48.9538 44.2237 48.9538 37.68C48.9538 31.1362 43.63 25.8125 37.0862 25.8125ZM37.9846 27.6492C40.0879 27.8359 42.007 28.6723 43.5402 29.9555L37.9846 35.511V27.6492ZM37.0862 47.7506C31.836 47.7506 27.5112 43.7122 27.0554 38.5784H37.0862C37.3342 38.5784 37.5586 38.478 37.7212 38.3155C37.7213 38.3154 37.7214 38.3154 37.7216 38.3152L44.8111 31.2259C46.2747 32.9748 47.1569 35.2263 47.1569 37.68C47.1569 43.2329 42.6392 47.7506 37.0862 47.7506Z" fill="#2C7DFA"/>
<path d="M61.3588 47.3555C59.8726 47.3555 58.6635 48.5646 58.6635 50.0508C58.6635 50.4233 58.7395 50.7782 58.8767 51.1012L53.7006 56.2774C53.3449 56.1041 52.9456 56.0066 52.5241 56.0066C52.1125 56.0066 51.7224 56.0997 51.3732 56.2653L47.9359 52.828C48.0551 52.524 48.1212 52.1935 48.1212 51.8476C48.1212 50.3614 46.9121 49.1523 45.4259 49.1523C43.9397 49.1523 42.7306 50.3614 42.7306 51.8476C42.7306 52.2502 42.8199 52.6323 42.979 52.9757L39.6822 56.2725C39.331 56.1045 38.938 56.0103 38.5234 56.0103C37.0372 56.0103 35.8281 57.2194 35.8281 58.7056C35.8281 60.1918 37.0372 61.4009 38.5234 61.4009C40.0096 61.4009 41.2188 60.1918 41.2188 58.7056C41.2188 58.289 41.1237 57.8942 40.9542 57.5418L44.2326 54.2634C44.5927 54.442 44.9977 54.5429 45.426 54.5429C45.9099 54.5429 46.3638 54.4141 46.7567 54.1901L50.097 57.5304C49.9252 57.8848 49.8287 58.2823 49.8287 58.7019C49.8287 60.1881 51.0379 61.3972 52.5241 61.3972C54.0103 61.3972 55.2194 60.1881 55.2194 58.7019C55.2194 58.2924 55.1272 57.9041 54.963 57.5562L60.0909 52.4284C60.469 52.6309 60.9007 52.7461 61.3588 52.7461C62.845 52.7461 64.0542 51.537 64.0542 50.0508C64.0542 48.5646 62.845 47.3555 61.3588 47.3555ZM38.5233 59.6041C38.028 59.6041 37.6249 59.2011 37.6249 58.7057C37.6249 58.2103 38.028 57.8073 38.5233 57.8073C38.7646 57.8073 38.9833 57.9033 39.1449 58.0585C39.1485 58.0623 39.1516 58.0664 39.1553 58.0701C39.1596 58.0744 39.1643 58.078 39.1687 58.0821C39.325 58.2438 39.4218 58.4636 39.4218 58.7057C39.4218 59.201 39.0187 59.6041 38.5233 59.6041ZM45.4259 52.746C44.9305 52.746 44.5274 52.343 44.5274 51.8476C44.5274 51.3522 44.9305 50.9491 45.4259 50.9491C45.9213 50.9491 46.3243 51.3522 46.3243 51.8476C46.3243 52.343 45.9213 52.746 45.4259 52.746ZM52.5239 59.6004C52.0285 59.6004 51.6254 59.1973 51.6254 58.7019C51.6254 58.2065 52.0285 57.8035 52.5239 57.8035C53.0193 57.8035 53.4223 58.2065 53.4223 58.7019C53.4223 59.1973 53.0193 59.6004 52.5239 59.6004ZM61.3587 50.9491C60.8633 50.9491 60.4602 50.5461 60.4602 50.0507C60.4602 49.5553 60.8634 49.1523 61.3587 49.1523C61.8541 49.1523 62.2571 49.5553 62.2571 50.0507C62.2571 50.5461 61.8541 50.9491 61.3587 50.9491Z" fill="#2C7DFA"/>
<path d="M56.8669 40.1133H52.125C51.6289 40.1133 51.2266 40.5156 51.2266 41.0117C51.2266 41.5078 51.6288 41.9102 52.125 41.9102H56.8669C57.363 41.9102 57.7653 41.5078 57.7653 41.0117C57.7653 40.5156 57.363 40.1133 56.8669 40.1133Z" fill="#2C7DFA"/>
<path d="M61.5941 40.3765C61.4271 40.2094 61.1953 40.1133 60.959 40.1133C60.7227 40.1133 60.4909 40.2093 60.3238 40.3765C60.1567 40.5436 60.0605 40.7754 60.0605 41.0117C60.0605 41.248 60.1566 41.4798 60.3238 41.6468C60.4909 41.8139 60.7218 41.9102 60.959 41.9102C61.1953 41.9102 61.4271 41.814 61.5941 41.6468C61.7612 41.4798 61.8574 41.248 61.8574 41.0117C61.8574 40.7754 61.7613 40.5436 61.5941 40.3765Z" fill="#2C7DFA"/>
<path d="M63.0998 31.4883H52.125C51.6289 31.4883 51.2266 31.8906 51.2266 32.3867C51.2266 32.8828 51.6288 33.2852 52.125 33.2852H63.0998C63.5959 33.2852 63.9982 32.8828 63.9982 32.3867C63.9982 31.8906 63.5959 31.4883 63.0998 31.4883Z" fill="#2C7DFA"/>
<path d="M63.0998 35.8008H52.125C51.6289 35.8008 51.2266 36.2031 51.2266 36.6992C51.2266 37.1953 51.6288 37.5977 52.125 37.5977H63.0998C63.5959 37.5977 63.9982 37.1953 63.9982 36.6992C63.9982 36.2031 63.5959 35.8008 63.0998 35.8008Z" fill="#2C7DFA"/>
</g>
<defs>
<filter id="filter0_d" x="0" y="0" width="92" height="92" filterUnits="userSpaceOnUse" color-interpolation-filters="sRGB">
<feFlood flood-opacity="0" result="BackgroundImageFix"/>
<feColorMatrix in="SourceAlpha" type="matrix" values="0 0 0 0 0 0 0 0 0 0 0 0 0 0 0 0 0 0 127 0"/>
<feOffset dy="4"/>
<feGaussianBlur stdDeviation="2"/>
<feColorMatrix type="matrix" values="0 0 0 0 0 0 0 0 0 0 0 0 0 0 0 0 0 0 0.05 0"/>
<feBlend mode="normal" in2="BackgroundImageFix" result="effect1_dropShadow"/>
<feBlend mode="normal" in="SourceGraphic" in2="effect1_dropShadow" result="shape"/>
</filter>
<filter id="filter1_d" x="14" y="16" width="62" height="62" filterUnits="userSpaceOnUse" color-interpolation-filters="sRGB">
<feFlood flood-opacity="0" result="BackgroundImageFix"/>
<feColorMatrix in="SourceAlpha" type="matrix" values="0 0 0 0 0 0 0 0 0 0 0 0 0 0 0 0 0 0 127 0"/>
<feOffset dy="5"/>
<feGaussianBlur stdDeviation="4"/>
<feColorMatrix type="matrix" values="0 0 0 0 0.172549 0 0 0 0 0.490196 0 0 0 0 0.980392 0 0 0 0.7 0"/>
<feBlend mode="normal" in2="BackgroundImageFix" result="effect1_dropShadow"/>
<feBlend mode="normal" in="SourceGraphic" in2="effect1_dropShadow" result="shape"/>
</filter>
</defs>
</svg>
