<svg width="92" height="92" viewBox="0 0 92 92" fill="none" xmlns="http://www.w3.org/2000/svg">
<g filter="url(#filter0_d)">
<rect x="4" width="84" height="84" rx="12" fill="white" fill-opacity="0.9"/>
<rect x="5" y="1" width="82" height="82" rx="11" stroke="white" stroke-width="2"/>
</g>
<path d="M67.7368 27.4378L59.561 19.2632C59.3925 19.0947 59.164 19 58.9258 19H32.2422C30.756 19 29.5469 20.2091 29.5469 21.6953V23.4081C25.1333 25.1394 22 29.4412 22 34.4613C22 34.9574 22.4023 35.3597 22.8984 35.3597H33.8676C34.3637 35.3597 34.766 34.9574 34.766 34.4613V23.4922C34.766 22.9961 34.3637 22.5938 33.8676 22.5938C33.0016 22.5938 32.1575 22.6878 31.3438 22.8648V21.6953C31.3438 21.1999 31.7468 20.7969 32.2422 20.7969H58.0273V26.2773C58.0273 27.7635 59.2365 28.9727 60.7227 28.9727H66.2031V62.3047C66.2031 62.8001 65.8001 63.2031 65.3047 63.2031H32.2422C31.7468 63.2031 31.3438 62.8001 31.3438 62.3047V54.608C31.3438 54.1119 30.9414 53.7096 30.4453 53.7096C29.9492 53.7096 29.5469 54.1119 29.5469 54.608V62.3047C29.5469 63.7909 30.756 65 32.2422 65H65.3047C66.7909 65 68 63.7909 68 62.3047V28.0731C68 27.8348 67.9053 27.6062 67.7368 27.4378ZM32.969 24.4304V33.5629H23.8366C24.2661 28.725 28.1312 24.86 32.969 24.4304ZM60.7227 27.1758C60.2273 27.1758 59.8242 26.7727 59.8242 26.2773V22.0673L64.9335 27.1758H60.7227Z" fill="#8C8C8C"/>
<path d="M31.0804 50.7086C30.9134 50.5414 30.6816 50.4453 30.4453 50.4453C30.209 50.4453 29.9772 50.5414 29.8101 50.7086C29.643 50.8757 29.5469 51.1075 29.5469 51.3438C29.5469 51.58 29.6429 51.8118 29.8101 51.9789C29.9772 52.1461 30.209 52.2422 30.4453 52.2422C30.6816 52.2422 30.9134 52.1461 31.0804 51.9789C31.2476 51.8118 31.3438 51.58 31.3438 51.3438C31.3438 51.1075 31.2476 50.8757 31.0804 50.7086Z" fill="#8C8C8C"/>
<path d="M37.0857 25.8125C36.5896 25.8125 36.1873 26.2148 36.1873 26.7109V36.7815H26.1167C25.6206 36.7815 25.2183 37.1838 25.2183 37.68C25.2183 44.2237 30.542 49.5475 37.0857 49.5475C43.6295 49.5475 48.9533 44.2237 48.9533 37.68C48.9533 31.1362 43.6295 25.8125 37.0857 25.8125ZM37.9842 27.6492C40.0874 27.8359 42.0066 28.6723 43.5397 29.9555L37.9842 35.511V27.6492ZM37.0857 47.7506C31.8355 47.7506 27.5107 43.7122 27.0549 38.5784H37.0857C37.3337 38.5784 37.5581 38.478 37.7207 38.3155C37.7208 38.3154 37.7209 38.3154 37.7211 38.3152L44.8106 31.2259C46.2742 32.9748 47.1564 35.2263 47.1564 37.68C47.1564 43.2329 42.6387 47.7506 37.0857 47.7506Z" fill="#8C8C8C"/>
<path d="M61.3581 47.3555C59.8719 47.3555 58.6628 48.5646 58.6628 50.0508C58.6628 50.4233 58.7388 50.7782 58.876 51.1012L53.6998 56.2774C53.3441 56.1041 52.9449 56.0066 52.5233 56.0066C52.1118 56.0066 51.7217 56.0997 51.3724 56.2653L47.9352 52.828C48.0543 52.524 48.1204 52.1935 48.1204 51.8476C48.1204 50.3614 46.9113 49.1523 45.4251 49.1523C43.9389 49.1523 42.7298 50.3614 42.7298 51.8476C42.7298 52.2502 42.8192 52.6323 42.9782 52.9757L39.6814 56.2725C39.3302 56.1045 38.9372 56.0103 38.5227 56.0103C37.0365 56.0103 35.8274 57.2194 35.8274 58.7056C35.8274 60.1918 37.0365 61.4009 38.5227 61.4009C40.0089 61.4009 41.218 60.1918 41.218 58.7056C41.218 58.289 41.123 57.8942 40.9535 57.5418L44.2319 54.2634C44.5919 54.442 44.9969 54.5429 45.4253 54.5429C45.9091 54.5429 46.3631 54.4141 46.756 54.1901L50.0963 57.5304C49.9245 57.8848 49.828 58.2823 49.828 58.7019C49.828 60.1881 51.0371 61.3972 52.5233 61.3972C54.0095 61.3972 55.2186 60.1881 55.2186 58.7019C55.2186 58.2924 55.1265 57.9041 54.9623 57.5562L60.0901 52.4284C60.4683 52.6309 60.9 52.7461 61.3581 52.7461C62.8443 52.7461 64.0534 51.537 64.0534 50.0508C64.0534 48.5646 62.8443 47.3555 61.3581 47.3555ZM38.5226 59.6041C38.0272 59.6041 37.6242 59.2011 37.6242 58.7057C37.6242 58.2103 38.0272 57.8073 38.5226 57.8073C38.7638 57.8073 38.9826 57.9033 39.1442 58.0585C39.1477 58.0623 39.1509 58.0664 39.1546 58.0701C39.1589 58.0744 39.1636 58.078 39.168 58.0821C39.3243 58.2438 39.4211 58.4636 39.4211 58.7057C39.4211 59.201 39.018 59.6041 38.5226 59.6041ZM45.4251 52.746C44.9297 52.746 44.5267 52.343 44.5267 51.8476C44.5267 51.3522 44.9297 50.9491 45.4251 50.9491C45.9205 50.9491 46.3236 51.3522 46.3236 51.8476C46.3236 52.343 45.9205 52.746 45.4251 52.746ZM52.5231 59.6004C52.0277 59.6004 51.6247 59.1973 51.6247 58.7019C51.6247 58.2065 52.0277 57.8035 52.5231 57.8035C53.0185 57.8035 53.4216 58.2065 53.4216 58.7019C53.4216 59.1973 53.0185 59.6004 52.5231 59.6004ZM61.3579 50.9491C60.8625 50.9491 60.4595 50.5461 60.4595 50.0507C60.4595 49.5553 60.8626 49.1523 61.3579 49.1523C61.8533 49.1523 62.2564 49.5553 62.2564 50.0507C62.2564 50.5461 61.8533 50.9491 61.3579 50.9491Z" fill="#8C8C8C"/>
<path d="M56.8676 40.1133H52.1257C51.6296 40.1133 51.2273 40.5156 51.2273 41.0117C51.2273 41.5078 51.6295 41.9102 52.1257 41.9102H56.8676C57.3637 41.9102 57.766 41.5078 57.766 41.0117C57.766 40.5156 57.3637 40.1133 56.8676 40.1133Z" fill="#8C8C8C"/>
<path d="M61.5931 40.3765C61.4261 40.2094 61.1943 40.1133 60.958 40.1133C60.7217 40.1133 60.4899 40.2093 60.3228 40.3765C60.1557 40.5436 60.0596 40.7754 60.0596 41.0117C60.0596 41.248 60.1556 41.4798 60.3228 41.6468C60.4899 41.8139 60.7208 41.9102 60.958 41.9102C61.1943 41.9102 61.4261 41.814 61.5931 41.6468C61.7602 41.4798 61.8564 41.248 61.8564 41.0117C61.8564 40.7754 61.7603 40.5436 61.5931 40.3765Z" fill="#8C8C8C"/>
<path d="M63.1005 31.4883H52.1257C51.6296 31.4883 51.2273 31.8906 51.2273 32.3867C51.2273 32.8828 51.6295 33.2852 52.1257 33.2852H63.1005C63.5966 33.2852 63.9989 32.8828 63.9989 32.3867C63.9989 31.8906 63.5966 31.4883 63.1005 31.4883Z" fill="#8C8C8C"/>
<path d="M63.1005 35.8008H52.1257C51.6296 35.8008 51.2273 36.2031 51.2273 36.6992C51.2273 37.1953 51.6295 37.5977 52.1257 37.5977H63.1005C63.5966 37.5977 63.9989 37.1953 63.9989 36.6992C63.9989 36.2031 63.5966 35.8008 63.1005 35.8008Z" fill="#8C8C8C"/>
<defs>
<filter id="filter0_d" x="0" y="0" width="92" height="92" filterUnits="userSpaceOnUse" color-interpolation-filters="sRGB">
<feFlood flood-opacity="0" result="BackgroundImageFix"/>
<feColorMatrix in="SourceAlpha" type="matrix" values="0 0 0 0 0 0 0 0 0 0 0 0 0 0 0 0 0 0 127 0"/>
<feOffset dy="4"/>
<feGaussianBlur stdDeviation="2"/>
<feColorMatrix type="matrix" values="0 0 0 0 0 0 0 0 0 0 0 0 0 0 0 0 0 0 0.05 0"/>
<feBlend mode="normal" in2="BackgroundImageFix" result="effect1_dropShadow"/>
<feBlend mode="normal" in="SourceGraphic" in2="effect1_dropShadow" result="shape"/>
</filter>
</defs>
</svg>
