<svg width="92" height="92" viewBox="0 0 92 92" fill="none" xmlns="http://www.w3.org/2000/svg">
<g filter="url(#filter0_d)">
<rect x="4" width="84" height="84" rx="12" fill="#8C8C8C"/>
<rect x="4" width="84" height="84" rx="12" fill="white"/>
<rect x="5" y="1" width="82" height="82" rx="11" stroke="white" stroke-width="2"/>
</g>
<g clip-path="url(#clip0)">
<path d="M43.5 68C31.125 68 21 57.875 21 45.5C21 33.125 31.125 23 43.5 23C55.875 23 66 33.125 66 45.5C66 57.875 55.875 68 43.5 68ZM43.5 25.25C32.25 25.25 23.25 34.25 23.25 45.5C23.25 56.75 32.25 65.75 43.5 65.75C54.75 65.75 63.75 56.75 63.75 45.5C63.75 34.25 54.75 25.25 43.5 25.25Z" fill="#8C8C8C"/>
<path d="M43.5 60.125C35.4 60.125 28.875 53.6 28.875 45.5C28.875 37.4 35.4 30.875 43.5 30.875C51.6 30.875 58.125 37.4 58.125 45.5C58.125 53.6 51.6 60.125 43.5 60.125ZM43.5 33.125C36.75 33.125 31.125 38.75 31.125 45.5C31.125 52.25 36.75 57.875 43.5 57.875C50.25 57.875 55.875 52.25 55.875 45.5C55.875 38.75 50.25 33.125 43.5 33.125Z" fill="#8C8C8C"/>
<path d="M43.5 52.25C39.675 52.25 36.75 49.325 36.75 45.5C36.75 41.675 39.675 38.75 43.5 38.75C47.325 38.75 50.25 41.675 50.25 45.5C50.25 49.325 47.325 52.25 43.5 52.25ZM43.5 41C41.025 41 39 43.025 39 45.5C39 47.975 41.025 50 43.5 50C45.975 50 48 47.975 48 45.5C48 43.025 45.975 41 43.5 41Z" fill="#8C8C8C"/>
<path d="M43.4992 46.6258C43.2742 46.6258 42.8242 46.6258 42.5992 46.4008C42.1492 45.9508 42.1492 45.2758 42.5992 44.8258L59.4742 27.9508C59.9242 27.5008 60.5992 27.5008 61.0492 27.9508C61.4992 28.4008 61.4992 29.0758 61.0492 29.5258L44.1742 46.4008C44.1742 46.6258 43.7242 46.6258 43.4992 46.6258Z" fill="#8C8C8C"/>
<path d="M66 29.75H60.375C59.7 29.75 59.25 29.3 59.25 28.625V23C59.25 22.775 59.475 22.325 59.475 22.1L67.35 14.225C67.8 14 68.25 14 68.7 14C69.15 14.225 69.375 14.675 69.375 15.125V19.625H73.875C74.325 19.625 74.775 19.85 75 20.3C75 20.75 75 21.2 74.775 21.65L66.9 29.525C66.675 29.525 66.225 29.75 66 29.75ZM61.5 27.5H65.55L71.175 21.875H68.25C67.575 21.875 67.125 21.425 67.125 20.75V17.825L61.5 23.45V27.5Z" fill="#8C8C8C"/>
</g>
<defs>
<filter id="filter0_d" x="0" y="0" width="92" height="92" filterUnits="userSpaceOnUse" color-interpolation-filters="sRGB">
<feFlood flood-opacity="0" result="BackgroundImageFix"/>
<feColorMatrix in="SourceAlpha" type="matrix" values="0 0 0 0 0 0 0 0 0 0 0 0 0 0 0 0 0 0 127 0"/>
<feOffset dy="4"/>
<feGaussianBlur stdDeviation="2"/>
<feColorMatrix type="matrix" values="0 0 0 0 0 0 0 0 0 0 0 0 0 0 0 0 0 0 0.05 0"/>
<feBlend mode="normal" in2="BackgroundImageFix" result="effect1_dropShadow"/>
<feBlend mode="normal" in="SourceGraphic" in2="effect1_dropShadow" result="shape"/>
</filter>
<clipPath id="clip0">
<rect width="54" height="54" fill="white" transform="translate(21 14)"/>
</clipPath>
</defs>
</svg>
