<svg width="114" height="26" viewBox="0 0 114 26" fill="none" xmlns="http://www.w3.org/2000/svg">
<path d="M83.0984 24.5232C83.9672 23.7202 85.652 22.7342 87.672 22.6605M92.6115 24.5232C90.9119 23.0688 89.1965 22.6048 87.672 22.6605M87.672 22.6605V14.4156M87.672 9.82123V7.76551C87.672 3.49804 85.2937 1.36755 82.5495 1C82.3667 8.35102 87.672 9.82123 87.672 9.82123ZM87.672 9.82123V14.4156M87.672 14.4156C88.5821 9.82123 93.9972 3.1318 100.29 5.04306C100.034 10.0554 94.9713 15.3637 91.9623 15.3637" stroke="#06C78D" stroke-width="1.46301"/>
<path d="M5.68801 24.9848C4.80132 24.9848 3.89105 24.9093 2.9572 24.7584C2.02335 24.6169 1.13666 24.4 0.297135 24.1075V22.5511C1.21212 22.8624 2.13182 23.0935 3.05624 23.2444C3.98066 23.3859 4.86735 23.4567 5.71631 23.4567C7.65004 23.4567 9.09798 23.1029 10.0601 22.3955C11.0223 21.6786 11.5034 20.6268 11.5034 19.2402C11.5034 18.4667 11.343 17.8253 11.0223 17.3159C10.7016 16.8065 10.1969 16.382 9.50831 16.0424C8.82915 15.6934 7.90473 15.3869 6.73505 15.1227L5.63141 14.8822C3.71654 14.4577 2.2969 13.788 1.37248 12.873C0.457493 11.958 0 10.7506 0 9.2508C0 8.06226 0.278269 7.04351 0.834807 6.19455C1.40078 5.33617 2.2403 4.68058 3.35338 4.2278C4.47589 3.7656 5.85308 3.53449 7.48497 3.53449C8.34335 3.53449 9.19231 3.5958 10.0318 3.71843C10.8714 3.83163 11.6543 4.00142 12.3806 4.2278V5.78422C10.7959 5.30315 9.16873 5.06261 7.49912 5.06261C5.59368 5.06261 4.1646 5.41634 3.21188 6.12381C2.25917 6.82184 1.78281 7.83115 1.78281 9.15175C1.78281 9.91581 1.9243 10.5572 2.20729 11.0761C2.49027 11.5854 2.95248 12.0146 3.59392 12.3636C4.23535 12.7127 5.10317 13.0098 6.19738 13.255L7.30102 13.5097C9.38568 13.9719 10.9044 14.6558 11.8571 15.5614C12.8098 16.4575 13.2862 17.6555 13.2862 19.1553C13.2862 20.391 12.989 21.4475 12.3948 22.3247C11.8099 23.1926 10.9468 23.8528 9.80545 24.3056C8.6735 24.7584 7.30102 24.9848 5.68801 24.9848Z" fill="#06C78D"/>
<path d="M29.1705 17.6838H18.5161C18.5821 19.7307 19.0915 21.2164 20.0442 22.1408C21.0064 23.0652 22.426 23.5274 24.3031 23.5274C25.4917 23.5274 26.8594 23.2916 28.4064 22.82V24.3056C26.8972 24.7678 25.4681 24.9989 24.1192 24.9989C21.695 24.9989 19.8603 24.3575 18.6151 23.0746C17.37 21.7823 16.7474 19.7779 16.7474 17.0612C16.7474 14.4577 17.2993 12.4957 18.4029 11.1751C19.516 9.84507 21.0724 9.18005 23.0722 9.18005C25.0436 9.18005 26.5529 9.84035 27.5999 11.1609C28.647 12.4815 29.1705 14.4577 29.1705 17.0895V17.6838ZM23.058 10.5242C21.6148 10.5242 20.5064 10.9912 19.7329 11.925C18.9689 12.8589 18.5633 14.3445 18.5161 16.382H27.4867C27.449 14.354 27.0575 12.873 26.3123 11.9392C25.5671 10.9959 24.4824 10.5242 23.058 10.5242Z" fill="#06C78D"/>
<path d="M33.1624 24.7301V3.51562H34.8886V24.7301H33.1624Z" fill="#06C78D"/>
<path d="M40.0502 24.7301V3.51562H41.7764V24.7301H40.0502Z" fill="#06C78D"/>
<path d="M62.1909 14.5426V24.4754C61.2288 24.6263 60.3609 24.7348 59.5874 24.8008C58.8234 24.8669 58.0216 24.8999 57.1821 24.8999C53.5599 24.8999 50.829 24.0274 48.9896 22.2823C47.1502 20.5372 46.2258 17.8724 46.2164 14.2879C46.207 11.8354 46.6314 9.81205 47.4898 8.2179C48.3576 6.61432 49.565 5.43521 51.112 4.68058C52.6685 3.91652 54.4984 3.53449 56.602 3.53449C57.4603 3.53449 58.2951 3.59109 59.1064 3.70428C59.9176 3.81748 60.7713 3.98727 61.6674 4.21366V5.78422C60.7335 5.52954 59.8704 5.35031 59.0781 5.24655C58.2951 5.14279 57.5075 5.09091 56.7151 5.09091C53.9796 5.09091 51.8478 5.82196 50.3197 7.28405C48.801 8.73671 48.0416 11.0525 48.0416 14.2313C48.0416 17.3442 48.7916 19.6411 50.2914 21.122C51.8006 22.603 54.0739 23.3435 57.1113 23.3435C58.347 23.3435 59.4837 23.268 60.5213 23.1171V14.5426H62.1909Z" fill="#06C78D"/>
<path d="M72.347 24.9848C70.734 24.9848 69.47 24.5509 68.555 23.6831C67.64 22.8058 67.1825 21.4145 67.1825 19.509V9.40644H68.9087V19.4241C68.9087 20.8391 69.2342 21.8578 69.885 22.4804C70.5453 23.1029 71.4697 23.4142 72.6583 23.4142C73.545 23.4142 74.4269 23.2303 75.3042 22.8624C76.1814 22.4851 76.9361 21.9285 77.5681 21.1928V9.40644H79.2943V24.7301H77.8228L77.6954 22.9897H77.5681C76.87 23.6406 76.073 24.1358 75.1768 24.4754C74.2807 24.815 73.3374 24.9848 72.347 24.9848Z" fill="#06C78D"/>
<path d="M107.013 24.9848C105.4 24.9848 104.136 24.5509 103.221 23.6831C102.306 22.8058 101.849 21.4145 101.849 19.509V9.40644H103.575V19.4241C103.575 20.8391 103.9 21.8578 104.551 22.4804C105.211 23.1029 106.136 23.4142 107.324 23.4142C108.211 23.4142 109.093 23.2303 109.97 22.8624C110.848 22.4851 111.602 21.9285 112.234 21.1928V9.40644H113.96V24.7301H112.489L112.362 22.9897H112.234C111.536 23.6406 110.739 24.1358 109.843 24.4754C108.947 24.815 108.004 24.9848 107.013 24.9848Z" fill="#06C78D"/>
</svg>
